<svg id="Icon_Set" enable-background="new 0 0 256 256" height="512" viewBox="0 0 256 256" width="512" xmlns="http://www.w3.org/2000/svg"><path d="m218.977 117.645-33.89 125.13c-1.18 4.36-5.13 7.39-9.65 7.39h-93.55c-4.5 0-8.44-3-9.64-7.34l-34.63-125.18 90.68-97.48z" fill="#ffbb98"/><path d="m170.687 198.545v51.62h-85.38v-51.62c0-23.58 19.11-42.69 42.69-42.69 11.79 0 22.46 4.78 30.19 12.5 7.72 7.73 12.5 18.4 12.5 30.19z" fill="#b76c6c"/><path d="m96.887 250.165h-15c-4.5 0-8.44-3-9.64-7.34l-34.63-125.18 90.68-97.48 7.5 8.06-83.18 89.42 34.63 125.18c1.2 4.34 5.14 7.34 9.64 7.34z" fill="#ffcaa6"/><path d="m218.977 117.645-33.89 125.13c-1.18 4.36-5.13 7.39-9.65 7.39h-15c4.52 0 8.47-3.03 9.65-7.39l33.89-125.13-83.18-89.42 7.5-8.06z" fill="#ffaa80"/><path d="m170.687 198.545v51.62h-15v-51.62c0-11.79-4.78-22.46-12.5-30.19-6.05-6.04-13.91-10.29-22.69-11.84 2.44-.43 4.94-.66 7.5-.66 11.79 0 22.46 4.78 30.19 12.5 7.72 7.73 12.5 18.4 12.5 30.19z" fill="#965959"/><path d="m135.497 156.515c-20 3.54-35.19 21.01-35.19 42.03v51.62h-15v-51.62c0-23.58 19.11-42.69 42.69-42.69 2.56 0 5.07.23 7.5.66z" fill="#c98585"/><path d="m234.398 149.179c-3.842 0-7.674-1.536-10.498-4.571l-95.601-103.398-96.204 103.398c-5.392 5.796-14.462 6.124-20.259.732s-6.124-14.463-.732-20.259l106.7-114.681c2.712-2.915 6.514-4.571 10.496-4.571s7.783 1.656 10.496 4.571l106.095 114.68c5.392 5.797 5.065 14.868-.732 20.259-2.761 2.57-6.265 3.84-9.761 3.84z" fill="#b76c6c"/><path d="m26.107 125.085c-5.4 5.79-5.07 14.86.73 20.25.71.66 1.47 1.24 2.27 1.72-5.35 3.3-12.44 2.77-17.27-1.72-5.8-5.39-6.13-14.46-.73-20.25l106.7-114.69c2.71-2.91 6.51-4.57 10.49-4.57 2.67 0 5.27.75 7.51 2.12-1.1.67-2.11 1.49-3 2.45z" fill="#c98585"/><path d="m244.157 145.335c-2.76 2.57-6.26 3.84-9.76 3.84-2.61 0-5.22-.71-7.51-2.12.8-.48 1.56-1.06 2.27-1.72 5.8-5.39 6.13-14.46.73-20.25l-106.09-114.69c-.89-.96-1.9-1.78-2.99-2.45 2.23-1.37 4.82-2.12 7.49-2.12 3.98 0 7.79 1.66 10.5 4.57l106.09 114.69c5.4 5.79 5.07 14.86-.73 20.25z" fill="#965959"/><circle cx="127.997" cy="50.982" fill="#ffe2e2" r="46.352"/><path d="m116.561 53.589c5.101-8.836 17.854-8.836 22.956 0 .106.184 4.658 8.068 4.572 7.919 5.101 8.836-1.275 19.88-11.478 19.88-.212 0-9.316 0-9.144 0-10.202 0-16.579-11.045-11.478-19.88.106-.184 4.658-8.068 4.572-7.919z" fill="#b76c6c"/><path d="m135.537 81.064c-.93.21-1.91.32-2.93.32-.21 0-9.14 0-9.14 0-10.2 0-16.58-11.04-11.48-19.88.11-.18 4.57-7.91 4.57-7.91 4.06-7.03 12.95-8.47 18.99-4.32-1.56 1.06-2.94 2.5-3.99 4.32 0 0-4.46 7.73-4.57 7.91-4.59 7.96.12 17.7 8.55 19.56z" fill="#c98585"/><path d="m174.347 50.98c0 25.6-20.75 46.35-46.35 46.35-2.55 0-5.06-.21-7.5-.6 22.03-3.59 38.85-22.7 38.85-45.75s-16.82-42.16-38.85-45.75c2.44-.39 4.95-.6 7.5-.6 25.6 0 46.35 20.75 46.35 46.35z" fill="#ffcfcf"/><path d="m135.497 96.73c-2.44.39-4.95.6-7.5.6-25.6 0-46.35-20.75-46.35-46.35s20.75-46.35 46.35-46.35c2.55 0 5.06.21 7.5.6-22.03 3.59-38.85 22.7-38.85 45.75s16.82 42.16 38.85 45.75z" fill="#ffefee"/><g fill="#5f266d"><path d="m247.824 123.714-69.549-75.178c-1.207-26.639-23.428-48.056-50.278-48.056-27.089 0-49.313 21.606-50.301 48.504l-69.516 74.72c-11.012 11.828-2.323 31.421 14.084 30.814 8.732-.313 12.439-5.487 17.887-11.342l28.241 102.07c1.673 6.049 7.223 10.273 13.495 10.273h93.551c6.307 0 11.862-4.254 13.511-10.344l27.47-101.412c4.575 4.948 8.734 10.766 17.979 10.766 16.049.001 24.249-19.19 13.426-30.815zm-119.827-115.234c35.321 0 55.826 41.698 32.438 69.586-25.265 30.049-74.788 12.338-74.788-27.236.001-23.345 19.05-42.35 42.35-42.35zm35.494 78.044 18.573 20.085h-107.891l18.518-19.902c9.387 9.238 22.015 14.473 35.307 14.473 13.393 0 26.086-5.299 35.493-14.656zm-134.324 56.713c-1.878 2.021-4.432 3.188-7.189 3.287-9.267.315-14.151-10.699-7.941-17.369l64.434-69.257c1.368 7.514 4.418 14.583 8.944 20.736zm52.14 104.234c-2.443-.241-4.54-1.953-5.204-4.357l-5.192-18.764h10.396zm0-31.121h-12.609l-7.908-28.58h22.124c-2.015 7.483-1.607 11.223-1.607 28.58zm85.381 31.167h-77.381v-47.62c0-21.333 17.356-38.69 38.69-38.69 21.382 0 38.69 17.304 38.69 38.69v47.62zm14.538-4.432c-.706 2.611-3.087 4.435-5.788 4.435h-.75v-23.17h11.613zm7.242-26.735h-13.78c0-17.379.403-21.102-1.595-28.58h23.117zm9.909-36.58h-28.228c-16.921-35.378-67.31-35.363-84.275 0h-27.298l-7.909-28.583h155.451zm9.909-36.583h-159.832l-1.906-6.887 20.181-21.69h122.731l20.547 22.221zm18.548.057c-22.421-24.247-35.824-38.742-58.098-62.83 4.51-6.206 7.521-13.277 8.847-20.845l64.376 69.587c1.883 2.022 2.865 4.655 2.766 7.414-.329 9.104-11.601 13.429-17.891 6.674z"/><path d="m112.486 50.874-4.815 8.342c-6.918 11.98 1.722 26.942 15.555 26.942h9.633c13.824 0 22.475-14.959 15.555-26.942l-4.816-8.342c-6.914-11.975-24.192-11.985-31.112 0zm24.182 4 4.816 8.342c3.834 6.64-.952 14.942-8.627 14.942h-9.633c-7.668 0-12.464-8.296-8.627-14.942l4.816-8.342c3.836-6.641 13.418-6.647 17.255 0z"/><ellipse cx="117.752" cy="30.304" rx="7.52" ry="11.159" transform="matrix(.94 -.342 .342 .94 -3.264 42.1)"/><path d="m135.234 40.79c3.903 1.42 8.775-2.123 10.883-7.914s.653-11.637-3.25-13.058c-3.903-1.42-8.775 2.123-10.883 7.914s-.653 11.638 3.25 13.058z"/><path d="m106.373 56.378c3.903-1.42 5.358-7.267 3.25-13.058s-6.98-9.334-10.883-7.914-5.358 7.267-3.25 13.058c2.108 5.792 6.98 9.335 10.883 7.914z"/><path d="m150.429 56.378c3.903 1.42 8.775-2.123 10.883-7.914s.653-11.637-3.25-13.058c-3.903-1.42-8.775 2.123-10.883 7.914-2.108 5.792-.653 11.638 3.25 13.058z"/><path d="m154.664 225.032c-2.209 0-4 1.791-4 4v3.333c0 2.209 1.791 4 4 4s4-1.791 4-4v-3.333c0-2.209-1.791-4-4-4z"/><path d="m150.664 196.032v18c0 2.209 1.791 4 4 4s4-1.791 4-4v-18c0-2.209-1.791-4-4-4s-4 1.791-4 4z"/></g></svg>