<svg id="Icon_Set" enable-background="new 0 0 256 256" height="512" viewBox="0 0 256 256" width="512" xmlns="http://www.w3.org/2000/svg"><path d="m115.949 34.51v50.95c0 8.23-6.67 14.91-14.9 14.91h-61.76c-7.43 0-14.15-3.01-19.02-7.88-13.489-13.489-9.062-36.564 8.8-43.92 3.15-1.29 6.6-2.01 10.22-2.01h5.17c1.65 0 3.14-.67 4.22-1.76 1.07-1.07 1.74-2.56 1.74-4.2v-6.09c0-15.56 12.62-28.18 28.18-28.18h9.18c15.56 0 28.17 12.62 28.17 28.18z" fill="#b76c6c"/><path d="m90.689 6.48c-14.19 1.46-25.27 13.45-25.27 28.03v6.09c0 1.64-.67 3.13-1.74 4.2-1.08 1.09-2.57 1.76-4.22 1.76h-5.17c-3.62 0-7.07.72-10.22 2.01-17.86 7.36-22.29 30.43-8.8 43.92 4.87 4.87 11.59 7.88 19.02 7.88h-15c-7.43 0-14.15-3.01-19.02-7.88-13.49-13.49-9.06-36.56 8.8-43.92 3.15-1.29 6.6-2.01 10.22-2.01h5.17c1.65 0 3.14-.67 4.22-1.76 1.07-1.07 1.74-2.56 1.74-4.2v-6.09c0-15.56 12.62-28.18 28.18-28.18h9.18c.98 0 1.95.05 2.91.15z" fill="#c98585"/><path d="m106.631 9.159c-4.594-3.64-11.224.463-10.016 6.199l23.926 80.924c.166.359.344.715.571 1.038 3.132 4.458 9.977 3.931 12.381-.973.157-.32.269-.66.371-1.001l10.674-36.02c1.408-4.751.179-9.892-3.226-13.492z" fill="#b76c6c"/><path d="m243.06 155.57c-5.49-6.75-10.85-10.11-16.39-10.11-1.43 0-2.88.22-4.34.67-7.01 2.16-11.61 8.91-11.61 16.25v.92c0 5.61-1.69 11.02-4.76 15.56-.79 1.17-2.18 2.18-3.74 3.02-3.63 1.97-7.76 2.86-11.89 2.86h-11.36l5.72 22.61h15.93c8.5 0 16.2-3.45 21.78-9.02 5.57-5.58 9.02-13.28 9.02-21.79v-7.38c0-5.44 4.41-9.84 9.85-9.84 1.37 0 2.31-1.12 2.31-2.31 0-.5-.16-1-.52-1.44z" fill="#965959"/><path d="m55.88 136.71-17.52 91.23h-15.98c-5.93 0-10.74 4.81-10.74 10.74v1.07c0 5.94 4.81 10.75 10.74 10.75h11.65 10.83c5.93 0 10.74-4.81 10.74-10.75l13.845-64.947z" fill="#b76c6c"/><path d="m163.744 166.367-52.027-40.01h-55.841v26.553l41.771 67.39c2.065 3.331-.331 7.634-4.25 7.634h-6.994c-5.934 0-10.745 4.811-10.745 10.745v1.075c0 5.934 4.811 10.745 10.745 10.745h11.643 10.832 54.294c1.409 0 2.761-.553 3.766-1.54l1.708-1.679c23.272-22.864 20.961-61.024-4.902-80.913z" fill="#b76c6c"/><path d="m111.718 126.357h-55.842v-21.749c0-2.341 1.898-4.239 4.239-4.239h47.364c2.341 0 4.239 1.898 4.239 4.239z" fill="#ff4a73"/><path d="m58.589 100.37h-19.3c-7.43 0-14.15-3.01-19.02-7.88s-7.88-11.6-7.88-19.03c0-2.31.29-4.56.84-6.71 2.12-8.26 8.07-14.98 15.84-18.18 3.15-1.29 6.6-2.01 10.22-2.01h5.17c1.65 0 3.14-.67 4.22-1.76v.01s30.83 25.93 9.91 55.56z" fill="#ffbb98"/><path d="m108.399 227.94h-7c-5.93 0-10.74 4.81-10.74 10.74v1.07c0 5.94 4.81 10.75 10.74 10.75h-15c-5.93 0-10.74-4.81-10.74-10.75v-1.07c0-5.93 4.81-10.74 10.74-10.74h7c3.92 0 6.31-4.31 4.25-7.64l-41.77-67.39v-26.55h15v26.55l41.77 67.39c2.06 3.33-.33 7.64-4.25 7.64z" fill="#c98585"/><path d="m166.939 248.96c-2.075 2.034-2.84 1.54-18.77 1.54 1.41 0 2.76-.55 3.77-1.54 27.088-26.611 21.002-63.983-3.19-82.59l-52.03-40.01h15l52.03 40.01c24.295 18.687 30.195 56.061 3.19 82.59z" fill="#965959"/><path d="m75.119 100.37c-2.35 0-4.24 1.9-4.24 4.24v21.75h-15v-21.75c0-2.34 1.89-4.24 4.24-4.24z" fill="#f973a3"/><path d="m111.719 104.61v21.75h-15v-21.75c0-2.34-1.9-4.24-4.24-4.24h15c2.34 0 4.24 1.9 4.24 4.24z" fill="#ea2a6a"/><path d="m134.569 92.99c-.458 1.544-.766 2.712-1.07 3.36-2.61 5.307-10.364 5.428-12.96-.07l-23.92-80.92c-1.21-5.74 5.42-9.84 10.01-6.2l4.86 5.14c.01.35.05.7.13 1.06z" fill="#c98585"/><path d="m54.289 100.37c-14.494 0-24.489 1.651-34.02-7.88-4.341-4.341-6.67-9.978-6.67-11.03-5.431-15.747 6.528-34.9 25.69-34.9h5.17c1.65 0 3.14-.67 4.22-1.76v.01s.83.7 2.12 1.99c-2.35.29-4.61.9-6.73 1.77-17.86 7.36-22.29 30.43-8.8 43.92 4.87 4.87 11.59 7.88 19.02 7.88z" fill="#ffcaa6"/><path d="m54.289 100.37c-14.494 0-24.489 1.651-34.02-7.88-4.341-4.341-6.67-9.978-6.67-11.03-5.422-15.72 6.484-34.9 25.69-34.9h5.17c1.65 0 3.14-.67 4.22-1.76v.01s.83.7 2.12 1.99c-2.35.29-4.61.9-6.73 1.77-17.86 7.36-22.29 30.43-8.8 43.92 4.87 4.87 11.59 7.88 19.02 7.88z" fill="#ffcaa6"/><path d="m33.205 54.245v2.009c0 6.588-5.342 11.924-11.924 11.924h-2.409c-2.045 0-3.965-.513-5.646-1.425 2.123-8.264 8.073-14.989 15.847-18.185 2.397.776 4.132 3.018 4.132 5.677z" fill="#b76c6c"/><g fill="#5f266d"><path d="m73.898 30.751c.729.564 1.592.838 2.447.838 1.194 0 2.377-.533 3.165-1.55 1.353-1.747 1.034-4.259-.712-5.612-8.295-6.427-16.162-2.62-19.162.291-1.586 1.538-1.624 4.07-.086 5.656 1.539 1.586 4.07 1.624 5.656.086.379-.367 3.832-3.476 8.692.291z"/><path d="m74.797 43.174c0-3.183-2.581-5.764-5.764-5.764s-5.764 2.581-5.764 5.764 2.581 5.764 5.764 5.764 5.764-2.581 5.764-5.764z"/><path d="m246.549 152.63c-18.724-23.035-39.44-7.269-39.44 9.33 0 5.116-.953 9.625-4.08 14.24-.12.18-.64.84-2.33 1.75-5.354 2.902-9.856 2.37-19.62 2.37-3.9-7.16-9.29-13.53-15.91-18.62l-49.06-37.73v-19.78c0-1.98-.71-3.8-1.88-5.23.96-.89 1.82-1.87 2.58-2.93 3.249 10.87 18.271 10.211 21.28.04l10.67-36.03c1.81-6.09.22-12.75-4.15-17.37-.397-.42-34.659-36.699-35.11-37.06-2.88-2.28-6.6-2.84-9.92-1.59-3.55-1.36-7.39-2.1-11.41-2.1h-9.18c-17.74 0-32.18 14.43-32.18 32.17v6.09c0 2.631-3.324 1.96-7.13 1.96-17.057 0-30.91 13.884-30.91 30.9 0 8.26 3.22 16.02 9.06 21.86s13.6 9.05 21.85 9.05h12.6c-.01.08-.01.16-.01.24 0 22.001.474 29.198-1.85 41.37l-14.97 77.96h-12.68c-7.447 0-14.74 5.579-14.74 15.81 0 8.14 6.62 14.75 14.75 14.75h22.47c7.98 0 14.49-6.37 14.73-14.29l11.69-54.84 22.97 37.04c.409.67-.068 1.53-.85 1.53h-7c-8.13 0-14.74 6.61-14.74 14.74 0 10.301 7.359 15.82 14.74 15.82h76.14c2.88 0 5.6-1.11 7.65-3.12 10.83-10.66 17.12-24.99 17.68-40.03 12.896 0 25.456 1.678 37.36-10.19 10.889-10.906 10.19-22.384 10.19-32 0-3.22 2.62-5.84 5.85-5.84 5.329 0 8.225-6.218 4.89-10.27zm-142.2-140.88c19.666 20.788 11.647 12.311 34.45 36.42 2.41 2.55 3.29 6.23 2.29 9.6-.025.083-10.752 36.327-10.8 36.4-1.069 2.184-4.14 2.404-5.51.43-.096-.048-23.849-80.507-23.88-80.61-.351-1.871 1.833-3.333 3.45-2.24zm-49.54 28.43v-6.09c0-13.33 10.85-24.17 24.18-24.17 9.813 0 11.177-.145 14.36.56-1.446 4.53-1.874-.129 18.99 70.42v4.15c0 6.01-4.89 10.9-10.9 10.9h-35.4c12.13-24.26-5.14-45.31-11.89-52.22.43-1.1.66-2.3.66-3.55zm53.3 64.01v17.75h-47.84v-17.75c0-.13.1-.24.23-.24h47.37c.13 0 .24.11.24.24zm-78.89-51.52c.53.714.37 1.465.37 3.17 0 4.37-3.55 7.92-7.92 7.92-.279 0-2.642.006-2.92-.01.369-1.107 3.579-7.629 10.47-11.08zm-5.74 36.57c-2.292-2.302-4.007-4.936-5.178-7.955 11.228 10.021 29.104 2.04 29.104-13.031 0-2.209-1.791-4-4-4s-4 1.791-4 4c0 10.382-14.42 13.193-18.291 3.506 10.072 0 16.476-7.684 16.476-15.92 0-2.148.112-3.56-.64-5.53 4.302-.574 8.199.487 11.61-.89 4.149 4.23 7.445 8.87 9.73 13.43 5.591 11.182 5.427 22.34-1.45 33.1-17.058 0-25.119 1.532-33.361-6.71zm141.49 156.01c-.55.54-1.27.83-2.04.83h-76.14c-9.024 0-8.995-14.56 0-14.56h7c7.036 0 11.363-7.761 7.65-13.74l-28.21-45.5c-1.897-3.066-6.564-2.22-7.31 1.27-.132.62-13.93 65.146-13.93 65.78 0 3.73-3.02 6.75-6.74 6.75h-22.47c-9.002 0-9.037-14.56-.01-14.56h15.98c1.92 0 3.57-1.36 3.93-3.24l15.59-81.21c1.09-5.64 1.73-11.38 1.93-17.13h50.55l49.55 38.1c24.705 19.012 26.821 55.457 4.67 77.21zm62.84-76.51c0 7.976 1.036 17.454-7.85 26.34-9.306 9.306-18.806 7.85-31.94 7.85-.48-5.04-1.61-9.94-3.32-14.61 6.768 0 12.831.455 19.81-3.33 2.38-1.29 4.07-2.69 5.15-4.31 4.097-6.047 5.45-12.128 5.45-18.72 0-7.222 5.65-12.92 11.95-12.92 3.6 0 7.29 2.06 11.23 6.28-6.01 1.5-10.48 6.95-10.48 13.42z"/><path d="m143.239 166.3-3.63-2.55c-1.8-1.27-4.3-.84-5.57.96-1.27 1.81-.84 4.31.96 5.58 3.768 2.646 4.303 3.28 5.93 3.28 3.882 0 5.489-5.009 2.31-7.27z"/><path d="m127.349 155.11-16.34-11.53c-1.81-1.27-4.3-.84-5.58.97-1.27 1.8-.84 4.3.97 5.57 17.773 12.541 16.913 12.26 18.64 12.26 3.889 0 5.506-5.027 2.31-7.27z"/></g></svg>