<svg id="Icon_Set" enable-background="new 0 0 256 256" height="512" viewBox="0 0 256 256" width="512" xmlns="http://www.w3.org/2000/svg"><path d="m127.85 123h-38.1l-31.09-31.09c-1.41-1.42-3.72-1.32-5.04.18-8.387 9.586-23.621 9.752-32.21-.16-9.404-10.786-5.142-29.636 9.24-34.28.01 0 .01-.01.01-.01 2.61-.89 5.35-1.26 8.07-1.11 2.03.11 3.71-1.57 3.6-3.6-.14-2.56.18-5.14.97-7.61 1.14-3.64 3.28-7.02 6.4-9.73 7.58-6.59 20.46-6.58 28.04.01 6.62 5.77 8.79 14.56 6.49 22.3-1.181 3.975-3.474 7.41-6.33 9.91-1.51 1.33-1.61 3.63-.19 5.05l36.82 36.82z" fill="#ffe2e2"/><path d="m233.77 92.82c-7.763 8.039-20.747 8.71-29.2 1.4h-.01c-.76-.64-1.49-1.35-2.18-2.13-1.32-1.5-3.63-1.6-5.05-.18l-31.09 31.09h-38.09l13.32-13.32 35.98-35.98c6.669-6.67-6.57-5.83-6.57-22 0-5.873 2.529-11.875 7.38-16.1 13.506-11.742 36.458-1.88 35.41 17.33-.11 2.03 1.57 3.71 3.6 3.6 3.87-.21 7.79.63 11.29 2.52 13.361 7.09 13.844 25.134 5.21 33.77z" fill="#ffe2e2"/><path d="m150.03 48.08c-.33.05-.66.1-.99.14-1.26.16-2.55.2-3.87.12-2-.12-3.7 1.43-3.7 3.44v71.22h-26.94v-71.22c0-2.01-1.7-3.56-3.7-3.44-3.739.254-9.208-.784-13.26-3.62-6.489-4.325-9.966-11.913-9.4-19.27 1.2-17.431 24.106-27.469 37.28-12.78 1.36 1.51 3.74 1.51 5.1 0 13.206-14.739 36.085-4.576 37.28 12.78.706 12.007-8.04 21.15-17.8 22.63z" fill="#ffe2e2"/><path d="m51.14 94.47c-8.79 7.22-21.98 6.37-29.73-2.54-8.692-9.97-6.2-29.066 9.25-34.29-5.99 8.31-5.6 21.18 1.14 28.92 5.08 5.84 12.31 8.48 19.34 7.91z" fill="#ffefee"/><path d="m84.23 57.9c-4.53-9.05-13.89-16-23.92-16.69-6.25-.44-12.11 1.12-17.01 4.11 1.14-3.64 3.28-7.02 6.4-9.73 7.58-6.59 20.46-6.58 28.04.01 6.62 5.77 8.79 14.56 6.49 22.3z" fill="#ffcfcf"/><path d="m73.7 85.57 37.43 37.43h-21.38l-30.28-30.28 7.16-7.15c1.95-1.96 5.12-1.96 7.07 0z" fill="#ffefee"/><path d="m129.65 57.97v65.03h-15.12v-70.03h10.12c2.76 0 5 2.23 5 5z" fill="#ffefee"/><path d="m184.6 87.93-35.06 35.07h-21.39l13.32-13.32 35.98-35.98 7.15 7.16c1.96 1.95 1.96 5.11 0 7.07z" fill="#ffefee"/><path d="m100.12 27.08c-.59 8.53 3.01 16.24 8.96 21.29-12.12-.25-21.76-10.56-20.91-22.92.784-11.382 12.722-22.614 26.27-19.31-7.79 4.1-13.72 12.24-14.32 20.94z" fill="#ffefee"/><path d="m149.04 48.22c4.6-5.04 7.24-11.9 6.72-19.37-.65-9.47-7.49-18.27-16.22-22.13 14.375-4.974 27.467 6.783 28.29 18.73.8 11.63-7.69 21.45-18.79 22.77z" fill="#ffcfcf"/><path d="m210.32 40.23c-17.718-6.223-35.345 6.043-35.37 24.11-6.36-8.77-5.26-21.27 3.31-28.74 8.427-7.326 24.545-7.129 32.06 4.63z" fill="#ffefee"/><path d="m234.59 91.93c-7.84 9.01-21.25 9.77-30.03 2.29 18.23.177 30.352-17.717 24-35.17 12.97 6.921 13.768 24.005 6.03 32.88z" fill="#ffcfcf"/><path d="m234.37 219.355h-212.739l28.283-96.355c1.25-4.258 5.157-7.183 9.595-7.183h136.983c4.438 0 8.345 2.925 9.595 7.184z" fill="#ffbb98"/><path d="m74.51 115.82c-4.44 0-8.35 2.92-9.6 7.18l-28.28 96.36h-15l28.28-96.36c1.25-4.26 5.16-7.18 9.6-7.18z" fill="#ffcaa6"/><path d="m234.37 219.36h-15l-28.28-96.36c-1.25-4.26-5.16-7.18-9.6-7.18h15c4.44 0 8.35 2.92 9.6 7.18z" fill="#ffaa80"/><path d="m241.051 250.442h-226.102c-5.523 0-10-4.477-10-10v-18.409c0-5.523 4.477-10 10-10h226.103c5.523 0 10 4.477 10 10v18.409c-.001 5.523-4.477 10-10.001 10z" fill="#ffbb98"/><path d="m29.95 250.44h-15c-5.52 0-10-4.47-10-10v-18.41c0-5.52 4.48-10 10-10h15c-5.52 0-10 4.48-10 10v18.41c0 5.53 4.48 10 10 10z" fill="#ffcaa6"/><path d="m251.05 222.03v18.41c0 5.53-4.48 10-10 10h-15c5.52 0 10-4.47 10-10v-18.41c0-5.52-4.48-10-10-10h15c5.52 0 10 4.48 10 10z" fill="#ffaa80"/><path d="m114.234 164.562c6.141-10.636 21.493-10.636 27.633 0 1.992 3.449 3.512 6.083 5.504 9.532 6.141 10.636-1.535 23.931-13.817 23.931-3.983 0-7.023 0-11.006 0-12.282 0-19.957-13.295-13.817-23.931 3.376-5.847 2.124-3.679 5.503-9.532z" fill="#b76c6c"/><path d="m135.55 197.9c-1.252.174-1.076.13-13 .13-12.28 0-19.96-13.3-13.82-23.94 3.38-5.849 2.126-3.677 5.5-9.53 4.55-7.87 14.15-9.92 21.32-6.12-4.931 2.583-5.988 5.555-11.82 15.65-5.8 10.05.73 22.47 11.82 23.81z" fill="#c98585"/><g fill="#5f266d"><path d="m241.05 208.03h-5.83l-25.3-86.16c-1.73-5.92-7.26-10.05-13.43-10.05h-13.41l16.67-16.67c10.937 11.425 28.152 10.543 37.86-.59 12.966-14.88 3.86-42.736-19.92-42.05.657-22.849-26.431-33.523-42.05-19.93-11.738 10.235-11.406 27.946-.59 37.86l-29.58 29.58v-47.66c15.555.483 27.2-12.408 26.38-26.611-1.203-20.866-27.834-33.212-43.85-16.219-15.675-16.631-42.4-5.023-43.82 15.64-1.042 15.179 11.143 27.662 26.35 27.19v47.66l-29.58-29.58c10.763-9.865 11.203-27.577-.59-37.86-15.323-13.35-42.719-3.347-42.05 19.93-23.289-.7-33.226 26.761-19.92 42.05 9.635 11.072 26.874 12.065 37.86.59l16.67 16.67h-13.41c-6.17 0-11.7 4.13-13.43 10.05l-25.3 86.16h-5.83c-7.72 0-14 6.28-14 14v18.41c0 7.72 6.28 14 14 14h226.1c7.72 0 14-6.28 14-14v-18.41c0-7.72-6.28-14-14-14zm-59.93-132.34c3.004-3.003 2.899-7.991-.37-10.88-7.884-6.974-7.835-19.25.14-26.19 10.528-9.158 29.649-2.088 28.78 14.09-.226 4.316 3.3 8.033 7.81 7.82 16.061-1.037 23.275 18.232 14.1 28.78-7.224 8.275-19.748 7.705-26.2.13-2.825-3.196-7.804-3.425-10.87-.36l-22.74 22.74h-26.3c0-.746 35.122-35.602 35.65-36.13zm-70.53-31.34c-10.582.605-19.159-8.126-18.43-18.63.933-13.608 19.293-22.655 30.32-10.38 2.953 3.291 8.106 3.269 11.04 0 11.719-13.052 29.669-2.302 30.527 11.001.584 9.055-7.616 18.701-18.637 18.009-4.204-.267-7.94 3.05-7.94 7.43v56.24l-3.8 3.8h-11.34l-3.8-3.8v-56.24c0-4.344-3.693-7.697-7.94-7.43zm-49.1 44.73c-3.084-3.085-8.065-2.824-10.87.37-6.866 7.763-19.153 7.933-26.2-.14-9.026-10.376-2.325-29.632 14.1-28.78 4.496.214 8.037-3.492 7.81-7.82-1.011-16.157 18.307-23.217 28.78-14.09 7.443 6.477 8.559 18.429.14 26.2-3.261 2.861-3.38 7.86-.37 10.87.528.528 35.65 35.384 35.65 36.13h-26.3zm-7.74 35.05c.75-2.54 3.11-4.31 5.76-4.31h136.98c2.65 0 5.01 1.77 5.76 4.31l24.63 83.9h-197.76zm193.3 116.31c0 3.31-2.69 6-6 6h-226.1c-3.31 0-6-2.69-6-6v-18.41c0-3.31 2.69-6 6-6h226.1c3.31 0 6 2.69 6 6z"/><path d="m145.33 162.56c-8.093-13.897-27.055-12.848-34.56 0l-5.5 9.53c-7.692 13.317 1.92 29.94 17.28 29.94h11c15.383 0 24.961-16.642 17.28-29.94zm-11.78 31.47h-11c-9.167 0-14.973-9.931-10.36-17.94l5.51-9.53c4.362-7.636 15.706-8.321 20.7 0l5.51 9.53c4.611 8.005-1.168 17.94-10.36 17.94z"/><path d="m106.752 154.28c-1.578-5.521-7.273-11.623-12.64-9.68-4.46 1.63-6.13 8.31-3.72 14.93 2.41 6.61 7.98 10.66 12.44 9.04 4.32-1.57 6.01-7.88 3.92-14.29z"/><path d="m161.892 144.6c-5.419-1.962-10.87 4.098-12.65 9.69-2.08 6.4-.38 12.7 3.93 14.27 4.46 1.63 10.03-2.42 12.44-9.04 2.4-6.62.74-13.3-3.72-14.92z"/><path d="m135.813 150.75c4.373 1.637 9.994-2.367 12.43-9.04 2.33-6.347.906-13.225-3.69-14.91-.01 0-.01-.01-.02-.01-4.35-1.577-9.938 2.225-12.44 9.04-2.39 6.575-.758 13.277 3.72 14.92z"/><path d="m107.763 141.71c2.664 7.247 8.397 10.508 12.43 9.05 4.578-1.716 6.069-8.484 3.72-14.92-2.11-5.831-7.518-10.845-12.44-9.05-4.291 1.555-6.203 8.064-3.71 14.92z"/><path d="m148.66 40.19c2.987 0 14.259-6.524 10.32-18.12-1.723-5.001-9.292-2.397-7.57 2.6 1.286 3.709-.854 6.251-4.41 7.88-3.893 1.782-2.618 7.64 1.66 7.64z"/><path d="m131.31 41.93h2.6c5.288 0 5.285-8 0-8h-2.6c-5.285 0-5.293 8 0 8z"/></g></svg>