<svg id="Icon_Set" enable-background="new 0 0 256 256" height="512" viewBox="0 0 256 256" width="512" xmlns="http://www.w3.org/2000/svg"><path d="m28.051 144.053c-34.286-42.898-18.954-106.918 31.13-129.62h.01c49.441-22.642 108.081 7.335 118.03 61.59 16.086 87.068-95.052 135.895-149.17 68.03z" fill="#ffe2e2"/><path d="m100.456 175.596c-25.79 2.29-52.83-6.99-72.41-31.54-34.28-42.9-18.95-106.92 31.14-129.62h.01c13.8-6.32 28.32-8.54 42.3-7.28-9.17.82-18.38 3.2-27.3 7.28h-.01c-50.09 22.7-65.42 86.72-31.14 129.62 15.8 19.82 36.47 29.68 57.41 31.54z" fill="#ffefee"/><path d="m85.456 175.596c45.47-4.01 87.03-44 76.76-99.57-7.16-39.12-39.63-65.61-75.72-68.87 41.7-3.77 82.57 24.39 90.72 68.87 11.39 61.65-40.99 104.12-91.76 99.57z" fill="#ffcfcf"/><path d="m226.371 171.883h-95.411c8.98-4.114 17.29-9.752 24.583-16.784 16.526-15.935 26.116-37.322 27.004-60.193 3.447-75.794-86.319-121.026-145.395-71.248-42.453 35.772-42.231 101.833 1.903 137.035 15.491 12.355 34.757 19.189 55.076 19.189h132.24c8.073 0 16 6.11 16 16.95 0 8.822-7.178 16-16 16h-181c-15.99 0-29 13.009-29 29v7.417c0 2.209 1.791 4 4 4s4-1.791 4-4v-7.417c0-11.58 9.421-21 21-21h181c12.36 0 24-9.56 24-24.95 0-13.233-10.766-23.999-24-23.999zm-65.102-124.869c-24.456-2.143-46.567-15.323-60.098-35.812 25.029 2.186 46.842 15.818 60.098 35.812zm-69.65-36.079c15.406 26.786 43.567 43.564 74.454 44.35 2.945 5.844 5.099 11.893 6.51 18.069-44.409 13.732-91.759-13.135-102.2-58.907 6.599-2.042 13.783-3.288 21.236-3.512zm-28.788 6.283c11.814 49.184 62.639 78.441 111.141 64.056.505 4.016.691 7.7.636 11.318-53.697 36.532-126.672-2.668-125.726-67.775 5.068-3.446 9.398-5.668 13.949-7.599zm-21.823 13.688c.668 12.142 3.877 24.144 9.339 34.958-10.792 6.335-22.879 10.045-35.379 10.866 3.391-18.321 13.015-34.395 26.04-45.824zm-27.113 53.891c14.263-.68 28.078-4.782 40.375-11.974 5.462 8.741 12.375 16.326 19.828 22.299-16.563 13.487-37.251 19.48-57.562 17.781-2.473-8.949-3.419-18.406-2.641-28.106zm16.514 55.753c-4.821-6.228-8.404-12.639-11.114-19.465 22.038.979 43.977-6.182 61.461-21.123 10.266 6.746 21.548 11.118 32.999 13.16-20.301 25.261-53.172 35.406-83.346 27.428zm62.869 31.321c-19.695-.204-38.855-7.485-53.848-21.418 33.215 4.348 64.896-10.254 83.51-36.211 5.25.384 10.278.321 15.329-.182-4.814 25.106-21.659 46.889-44.991 57.811zm53.328-59.051c9.555-1.893 18.811-5.403 27.253-10.311-4.578 33.505-29.483 60.077-61.813 67.365 18.298-13.707 30.94-34.24 34.56-57.054z" fill="#5f266d"/></svg>