<svg id="Icon_Set" enable-background="new 0 0 256 256" height="512" viewBox="0 0 256 256" width="512" xmlns="http://www.w3.org/2000/svg"><path d="m235.547 125.988h-71.217c-5.5 0-10 4.5-10 10v38.024c0 5.5 4.5 10 10 10h41.177l18.1 34.84c2.42 4.64 9.44 2.93 9.44-2.31v-32.53h2.5c5.5 0 10-4.5 10-10v-38.024c0-5.5-4.5-10-10-10z" fill="#5fcdff"/><path d="m25.457 238.442v4.8c0 3.56 2.89 6.45 6.46 6.45h-15.01c-3.56 0-6.45-2.89-6.45-6.45v-4.8c0-26.872 13.394-50.155 34.25-64.4.55-.38 1.1-.74 1.66-1.1l.34.35 2.92 8.85c-14.89 14.15-24.17 34.14-24.17 56.3z" fill="#ffefee"/><path d="m165.807 238.442v4.8c0 3.56-2.89 6.45-6.46 6.45h-14.99c3.56 0 6.45-2.89 6.45-6.45v-4.8c0-21.058-8.406-41.204-24.17-56.31 3.233-9.822 2.766-8.624 3.17-9.23h.01c21.698 13.787 35.99 38.096 35.99 65.54z" fill="#ffcfcf"/><path d="m165.807 238.442v4.8c0 3.56-2.89 6.45-6.46 6.45h-142.44c-3.56 0-6.45-2.89-6.45-6.45v-4.8c0-27.52 14.32-51.71 35.91-65.5 12.06-7.7 26.39-12.17 41.76-12.17 15.34 0 29.63 4.45 41.68 12.13h.01c4.8 3.05 9.24 6.62 13.24 10.62 14.05 14.06 22.75 33.47 22.75 54.92z" fill="#44c7b6"/><path d="m25.453 238.442v4.8c0 3.56 2.89 6.45 6.46 6.45h-15c-3.57 0-6.46-2.89-6.46-6.45v-4.8c0-42.89 34.78-77.67 77.68-77.67 2.53 0 5.03.12 7.5.36-39.38 3.77-70.18 36.95-70.18 77.31z" fill="#4bdbc3"/><path d="m165.803 238.442v4.8c0 3.56-2.89 6.45-6.45 6.45h-15c3.56 0 6.45-2.89 6.45-6.45v-4.8c0-21.44-8.7-40.86-22.75-54.92-12.4-12.4-28.96-20.62-47.42-22.39 2.47-.24 4.97-.36 7.5-.36 21.45 0 40.86 8.69 54.92 22.75 14.05 14.06 22.75 33.48 22.75 54.92z" fill="#3bb2a0"/><path d="m88.13 160.732c-26.25 0-47.727-21.477-47.727-47.727v-42.67c0-3.55 2.904-6.454 6.454-6.454h82.546c3.55 0 6.454 2.904 6.454 6.454v42.67c0 26.249-21.477 47.727-47.727 47.727z" fill="#ffbb98"/><path d="m21.361 103.83c0 7.955 6.508 14.463 14.463 14.463h4.632v-28.926h-4.632c-7.955 0-14.463 6.509-14.463 14.463z" fill="#ffbb98"/><path d="m140.435 89.367h-4.632v28.927h4.632c7.955 0 14.463-6.508 14.463-14.463.001-7.955-6.508-14.464-14.463-14.464z" fill="#ffbb98"/><path d="m88.13 187.556c-9.181 0-16.623-7.442-16.623-16.623v-36.944h33.247v36.944c-.001 9.18-7.443 16.623-16.624 16.623z" fill="#ffbb98"/><path d="m95.633 160.142c-2.44.39-4.95.59-7.5.59-26.25 0-47.73-21.48-47.73-47.73v-42.67c0-3.55 2.9-6.45 6.45-6.45h15c-3.55 0-6.45 2.9-6.45 6.45v42.67c0 23.7 17.51 43.51 40.23 47.14z" fill="#ffcaa6"/><path d="m135.853 70.332v42.67c0 26.25-21.47 47.73-47.72 47.73-2.55 0-5.05-.2-7.5-.59 22.72-3.63 40.22-23.44 40.22-47.14v-42.67c0-3.55-2.9-6.45-6.45-6.45h15c3.55 0 6.45 2.9 6.45 6.45z" fill="#ffaa80"/><path d="m41.687 95.383c-7.078 0-12.817-5.738-12.817-12.817v-30.998c0-7.078 5.738-12.817 12.817-12.817 7.078 0 12.817 5.738 12.817 12.817v30.998c0 7.078-5.738 12.817-12.817 12.817z" fill="#b76c6c"/><path d="m157.523 11.882-9.54 33.3c-1.35 4.72-3.49 9.12-6.26 13.05-8.74 12.49-23.67 20.15-39.12 17.82l-48.1-7.26v-17.22c0-12.05 7.09-22.44 17.32-27.23 3.87-1.81 8.18-2.82 12.73-2.82h29.94c13.52 0 26.57-5.04 36.59-14.12.83-.75 1.76-1.07 2.68-1.07 2.58 0 4.94 2.61 3.76 5.55z" fill="#b76c6c"/><path d="m49.183 92.952c-2.11 1.53-4.7 2.43-7.5 2.43-7.07 0-12.81-5.74-12.81-12.82v-30.99c0-7.08 5.74-12.82 12.81-12.82 2.8 0 5.39.9 7.5 2.42-3.21 2.33-5.31 6.12-5.31 10.4v30.99c0 4.28 2.1 8.07 5.31 10.39z" fill="#c98585"/><path d="m149.513 39.832-1.53 5.35c-1.35 4.72-3.49 9.12-6.26 13.05-8.74 12.49-23.67 20.15-39.12 17.82l-48.1-7.26v-15.21l49.8 6.79c17.09 2.33 33.6-5.33 43.27-17.82.69-.88 1.34-1.79 1.94-2.72z" fill="#c98585"/><path d="m153.763 6.332c-.92 0-1.85.32-2.68 1.07-10.02 9.08-23.07 14.12-36.59 14.12h-29.94c-4.55 0-8.86 1.01-12.73 2.82-10.23 4.79-17.32 15.18-17.32 27.23v10.87c0-12.05 7.09-22.44 17.32-27.23 3.87-1.81 8.18-2.82 12.73-2.82h29.94c13.52 0 26.57-5.04 36.59-14.12.83-.75 1.76-1.07 2.68-1.07.73 0 1.45.21 2.07.58l1.69-5.9c1.18-2.94-1.18-5.55-3.76-5.55z" fill="#965959"/><path d="m71.897 249.692h-54.99c-3.56 0-6.45-2.89-6.45-6.45v-4.8c0-27.52 14.32-51.71 35.91-65.5l.34.35z" fill="#ffe2e2"/><path d="m165.807 238.442v4.8c0 3.56-2.89 6.45-6.46 6.45h-54.99l25.19-76.4.26-.39h.01c4.8 3.05 9.24 6.62 13.24 10.62 14.05 14.06 22.75 33.47 22.75 54.92z" fill="#ffe2e2"/><path d="m46.707 173.292 2.92 8.85c-14.89 14.15-24.17 34.14-24.17 56.3v4.8c0 3.56 2.89 6.45 6.46 6.45h-15.01c-3.56 0-6.45-2.89-6.45-6.45v-4.8c0-26.89 13.432-50.181 34.25-64.4.55-.38 1.1-.74 1.66-1.1z" fill="#ffefee"/><path d="m165.807 238.442v4.8c0 3.56-2.89 6.45-6.46 6.45h-14.99c3.56 0 6.45-2.89 6.45-6.45v-4.8c0-21.058-8.406-41.204-24.17-56.31 3.233-9.822 2.766-8.624 3.17-9.23h.01c21.698 13.787 35.99 38.096 35.99 65.54z" fill="#ffefee"/><path d="m179.327 184.012h-15c-5.5 0-10-4.5-10-10v-38.02c0-5.5 4.5-10 10-10h15c-5.5 0-10 4.5-10 10v38.02c0 5.5 4.5 10 10 10z" fill="#73d7f9"/><path d="m245.547 135.992v38.02c0 5.5-4.5 10-10 10h-2.5v32.53c0 5.24-7.02 6.95-9.44 2.31l-5.56-10.7v-21.64c0-1.381 1.119-2.5 2.5-2.5 5.5 0 10-4.5 10-10v-38.02c0-5.5-4.5-10-10-10h15c5.5 0 10 4.5 10 10z" fill="#30b6ff"/><g fill="#5f266d"><path d="m178.522 166.463c-3.008 0-5.364 2.356-5.364 5.364s2.356 5.364 5.364 5.364c2.898 0 5.256-2.406 5.256-5.364s-2.357-5.364-5.256-5.364z"/><path d="m181.94 132.809c-4.18 0-7.855 1.385-10.35 3.9-2.306 2.325-3.508 5.445-3.479 9.023.009 1.098.902 1.983 2 1.983h4.666c1.104 0 2-.896 2-2 0-4.161 3.269-4.783 5.217-4.783 3.315 0 5.217 1.842 5.217 5.054 0 3.556-1.581 5.759-9.449 5.759h-1.573c-1.123 0-2.028.926-1.999 2.051l.217 8.573c.027 1.084.914 1.949 1.999 1.949h4.287c1.08 0 1.965-.857 1.999-1.937l.104-3.287c8.38-.616 13.137-5.316 13.137-13.108 0-7.882-5.623-13.177-13.993-13.177z"/><path d="m214.356 166.463c-3.008 0-5.364 2.356-5.364 5.364s2.356 5.364 5.364 5.364c2.898 0 5.256-2.406 5.256-5.364s-2.358-5.364-5.256-5.364z"/><path d="m217.774 132.809c-4.18 0-7.855 1.385-10.35 3.9-2.306 2.325-3.508 5.445-3.479 9.023.009 1.098.902 1.983 2 1.983h4.666c1.104 0 2-.896 2-2 0-4.161 3.269-4.783 5.217-4.783 3.315 0 5.217 1.842 5.217 5.054 0 5.721-5.266 5.759-11.022 5.759-1.123 0-2.027.926-1.999 2.051l.217 8.573c.027 1.084.914 1.949 1.999 1.949h4.287c1.08 0 1.965-.857 1.999-1.937l.104-3.287c8.38-.616 13.137-5.316 13.137-13.108-.001-7.882-5.624-13.177-13.993-13.177z"/><path d="m235.547 121.988h-71.216c-7.72 0-14 6.28-14 14v38.024c0 7.72 6.28 14 14 14h38.746l16.983 32.689c4.336 8.315 16.986 5.298 16.986-4.159v-28.61c7.018-.751 12.5-6.708 12.5-13.92v-38.024c.001-7.719-6.279-14-13.999-14zm6 52.024c0 3.309-2.691 6-6 6h-2.5c-2.209 0-4 1.791-4 4v32.53c0 1.074-1.401 1.415-1.89.465l-18.101-34.84c-.688-1.325-2.057-2.156-3.55-2.156h-41.176c-3.309 0-6-2.691-6-6v-38.024c0-3.309 2.691-6 6-6h71.216c3.309 0 6 2.691 6 6v38.025z"/><path d="m64.626 93.611c-3.531 0-6.394 2.863-6.394 6.394s2.863 6.394 6.394 6.394 6.394-2.863 6.394-6.394c0-3.532-2.862-6.394-6.394-6.394z"/><path d="m111.633 106.399c3.531 0 6.394-2.863 6.394-6.394s-2.863-6.394-6.394-6.394-6.394 2.863-6.394 6.394 2.863 6.394 6.394 6.394z"/><path d="m102.308 118.788c0-2.209-1.791-4-4-4s-4 1.791-4 4c0 3.406-2.771 6.178-6.178 6.178s-6.178-2.771-6.178-6.178c0-2.209-1.791-4-4-4s-4 1.791-4 4c0 7.818 6.36 14.178 14.178 14.178 7.817-.001 14.178-6.361 14.178-14.178z"/><path d="m110.157 159.794c14.838-7.015 25.816-20.885 28.843-37.5 26.739 0 25.827-36.926.852-36.926 0-16.418.163-16.109-.502-18.193 11.354-11.148 12.063-19.448 21.971-54.025 2.899-7.84-6.693-14.359-12.925-8.714-9.306 8.436-21.348 13.081-33.908 13.081h-29.933c-14.362 0-26.666 8.942-31.662 21.547-10.831-9.716-28.023-1.964-28.023 12.504v30.998c0 2.015.374 3.939 1.027 5.731-5.31 3.408-8.534 9.194-8.534 15.535 0 9.206 6.836 18.46 19.892 18.46 3.028 16.621 14.013 30.494 28.861 37.508-35.123 9.837-59.663 41.898-59.663 78.642v4.8c0 5.762 4.692 10.45 10.46 10.45h142.439c5.763 0 10.45-4.688 10.45-10.45v-4.8c.001-37.939-25.65-69.175-59.645-78.648zm29.696-66.427c14.665 0 14.699 20.926-.033 20.926.045-1.841.033 2.548.033-20.926zm-81.349-41.799c0-14.365 11.687-26.051 26.051-26.051h29.934c14.551 0 28.501-5.382 39.249-15.188.035.007.098.051.073.063-.12.298-9.587 33.38-9.676 33.689-5.267 18.378-23.248 30.687-40.931 28.015l-44.7-6.747zm-33.141 52.264c0-3.702 1.95-7.002 4.979-8.888 1.73 1.587 3.784 2.82 6.061 3.576 0 17.721-.011 14.005.033 15.772-7.028 0-11.073-5.146-11.073-10.46zm7.507-21.266v-30.998c0-4.862 3.955-8.817 8.817-8.817 4.861 0 8.816 3.955 8.816 8.817v17.223 13.775c0 4.862-3.955 8.817-8.816 8.817-4.862 0-8.817-3.955-8.817-8.817zm11.533 30.435v-13.858c7.983-1.305 14.101-8.231 14.101-16.577v-9.126l43.507 6.566c10.351 1.563 20.908-1.022 29.842-6.817v25.37c0 1.998 0 2.628 0 2.582v11.861c0 18.778-11.896 34.826-28.544 41.009-27.479 10.689-58.906-10.073-58.906-41.01zm56.35 50.166v7.764c0 6.959-5.661 12.62-12.62 12.62-6.964 0-12.63-5.661-12.63-12.62v-7.766c8.279 2.086 16.953 2.091 25.25.002zm-83.84 82.524c-1.356 0-2.46-1.099-2.46-2.45v-4.8c0-23.807 11.675-45.632 29.987-59.24l21.924 66.49zm57.875 0-23.428-71.051c5.021-2.917 10.43-5.252 16.142-6.918v3.209c0 11.37 9.255 20.62 20.63 20.62 11.37 0 20.62-9.25 20.62-20.62v-3.229c5.657 1.641 11.072 3.962 16.153 6.895l-23.442 71.094zm87.015-2.449c0 1.351-1.1 2.45-2.45 2.45h-49.465l21.947-66.559c18.275 13.5 29.969 34.984 29.969 59.309v4.8z"/><path d="m37.812 196.084c-.288.245-7.11 6.157-10.871 19.236-.611 2.123.615 4.339 2.738 4.95 2.128.611 4.34-.619 4.949-2.739 3.017-10.488 8.235-15.235 8.386-15.37 3.999-3.444-1.186-9.488-5.202-6.077z"/><path d="m28.664 227.213c-2.217-.074-4.062 1.645-4.142 3.853-.034.936-.052 1.893-.053 2.872-.005 5.301 7.995 5.353 8 .009.001-.883.017-1.747.047-2.59.081-2.21-1.644-4.064-3.852-4.144z"/></g></svg>