<svg id="Icon_Set" enable-background="new 0 0 256 256" height="512" viewBox="0 0 256 256" width="512" xmlns="http://www.w3.org/2000/svg"><path d="m101.385 40.61v47.42c0 7.65-6.21 13.87-13.87 13.87h-57.48c-6.91 0-13.17-2.8-17.7-7.34-4.54-4.53-7.34-10.79-7.34-17.7 0-2.16.27-4.25.79-6.25 1.97-7.69 7.51-13.94 14.74-16.92 2.93-1.2 6.15-1.87 9.51-1.87h4.82c1.53 0 2.91-.62 3.92-1.62v-.01c1-1.01 1.62-2.39 1.62-3.92v-5.66c0-14.49 11.75-26.23 26.23-26.23h8.54c14.48 0 26.22 11.74 26.22 26.23z" fill="#b76c6c"/><path d="m78.395 14.59c-12.96 1.58-23 12.63-23 26.02v5.66c0 1.53-.62 2.91-1.62 3.92v.01c-1.01 1-2.39 1.62-3.92 1.62h-4.82c-3.36 0-6.58.67-9.51 1.87-7.23 2.98-12.77 9.23-14.74 16.92-.52 2-.79 4.09-.79 6.25 0 6.91 2.8 13.17 7.34 17.7 4.53 4.54 10.79 7.34 17.7 7.34h-15c-6.91 0-13.17-2.8-17.7-7.34-4.54-4.53-7.34-10.79-7.34-17.7 0-2.16.27-4.25.79-6.25 1.97-7.69 7.51-13.94 14.74-16.92 2.93-1.2 6.15-1.87 9.51-1.87h4.82c1.53 0 2.91-.62 3.92-1.62v-.01c1-1.01 1.62-2.39 1.62-3.92v-5.66c0-14.49 11.75-26.23 26.23-26.23h8.54c1.09 0 2.17.07 3.23.21z" fill="#c98585"/><path d="m63.613 154.884v65.736h-10.835c-5.523 0-10 4.477-10 10v1c0 5.523 4.477 10 10 10h10.836 10.081c5.523 0 10-4.477 10-10v-11-65.736z" fill="#b76c6c"/><path d="m171.036 154.884v65.736h-10.836c-5.523 0-10 4.477-10 10v1c0 5.523 4.477 10 10 10h10.836 10.081c5.523 0 10-4.477 10-10v-11-65.736z" fill="#b76c6c"/><path d="m47.995 101.9h-17.96c-6.91 0-13.17-2.8-17.7-7.34-4.54-4.53-7.34-10.79-7.34-17.7 0-2.16.27-4.25.79-6.25 1.97-7.69 7.51-13.94 14.74-16.92 2.93-1.2 6.15-1.87 9.51-1.87h4.82c1.53 0 2.91-.62 3.92-1.62 0 0 28.69 24.13 9.22 51.7z" fill="#ffbb98"/><path d="m92.709 17.014c-4.276-3.388-10.446.431-9.321 5.769l22.267 75.313c.154.334.32.665.532.966 2.914 4.149 9.285 3.658 11.523-.906.146-.298.251-.614.345-.932l9.934-33.523c1.31-4.421.166-9.206-3.002-12.557z" fill="#b76c6c"/><path d="m97.443 126.085h-51.97v-20.241c0-2.179 1.766-3.945 3.945-3.945h44.079c2.179 0 3.945 1.766 3.945 3.945v20.241z" fill="#ff4a73"/><path d="m180.445 198.353h-84.972c-27.614 0-50-22.386-50-50v-22.267h134.972c13.807 0 25 11.193 25 25v22.267c0 13.807-11.193 25-25 25z" fill="#b76c6c"/><path d="m110.475 198.35h-15c-27.62 0-50-22.38-50-50v-22.26h15v22.26c0 27.62 22.38 50 50 50z" fill="#c98585"/><path d="m64.415 101.9c-2.18 0-3.94 1.77-3.94 3.94v20.25h-15v-20.25c0-2.17 1.76-3.94 3.94-3.94z" fill="#f973a3"/><path d="m97.445 105.84v20.25h-15v-20.25c0-2.17-1.77-3.94-3.95-3.94h15c2.18 0 3.95 1.77 3.95 3.94z" fill="#ea2a6a"/><path d="m205.445 151.09v22.26c0 13.81-11.19 25-25 25h-15c13.81 0 25-11.19 25-25v-22.26c0-13.81-11.19-25-25-25h15c13.81 0 25 11.19 25 25z" fill="#965959"/><path d="m248.825 170.79c-5.06 0-9.17-4.11-9.17-9.17v-6.87c0-7.91-3.21-15.08-8.39-20.27-5.19-5.18-12.36-8.39-20.28-8.39h-30.54c12.46 0 22.79 9.11 24.68 21.03h.32c4.19 0 8.17 2 10.51 5.47 2.86 4.24 4.43 9.27 4.43 14.49v.86c0 6.83 4.28 13.11 10.81 15.12 1.36.42 2.7.62 4.03.62 5.16 0 10.15-3.13 15.26-9.4.33-.41.48-.88.48-1.34 0-1.11-.87-2.15-2.14-2.15z" fill="#965959"/><path d="m27.335 94.56c-4.54-4.53-7.34-10.79-7.34-17.7 0-2.16.27-4.25.79-6.25 1.97-7.69 7.51-13.94 14.74-16.92 1.69-.69 3.48-1.21 5.34-1.51-1.27-1.29-2.09-1.98-2.09-1.98-1.01 1-2.39 1.62-3.92 1.62h-4.82c-3.36 0-6.58.67-9.51 1.87-7.23 2.98-12.77 9.23-14.74 16.92-.52 2-.79 4.09-.79 6.25 0 6.91 2.8 13.17 7.34 17.7 4.53 4.54 10.79 7.34 17.7 7.34h15c-6.91 0-13.17-2.8-17.7-7.34z" fill="#ffcaa6"/><path d="m119.225 93.27-1.17 3.95c-.09.32-.2.64-.35.94-2.23 4.56-8.6 5.05-11.52.9-.21-.3-.38-.63-.53-.96l-22.27-75.32c-1.12-5.34 5.05-9.15 9.32-5.77l5.78 6.11z" fill="#c98585"/><path d="m24.374 58.974v1.87c0 6.131-4.972 11.098-11.098 11.098h-2.242c-1.903 0-3.69-.477-5.255-1.326 1.975-7.691 7.513-13.95 14.749-16.924 2.231.72 3.846 2.807 3.846 5.282z" fill="#b76c6c"/><path d="m66.945 241.62h-14.17c-5.52 0-10-4.48-10-10v-1c0-5.52 4.48-10 10-10h14.17c-5.52 0-10 4.48-10 10v1c0 5.52 4.48 10 10 10z" fill="#c98585"/><path d="m174.663 241.62h-14.459c-5.53 0-10-4.48-10-10v-1c0-5.52 4.47-10 10-10h14.459c-5.53 0-10 4.48-10 10v1c0 5.52 4.47 10 10 10z" fill="#c98585"/><g fill="#5f266d"><path d="m61.715 37.715c1.754 1.358 4.265 1.026 5.612-.712 4.659-6.013-10.538-13.443-18.909-5.321-1.585 1.538-1.624 4.07-.086 5.656 1.538 1.585 4.07 1.625 5.656.086.334-.324 3.391-3.068 7.727.291z"/><circle cx="57.389" cy="47.664" r="5.169"/><path d="m248.822 166.787c-2.849 0-5.167-2.318-5.167-5.167v-6.868c0-18.012-14.654-32.667-32.667-32.667-10.117 0-99.304 0-109.546 0v-3.836c67.237 2.984 134.028-24.508 153.366-91.653.611-2.123-.614-4.339-2.736-4.951-2.125-.609-4.34.615-4.951 2.737-11.518 39.989-39.969 66.553-84.565 78.955-26.959 7.498-52.008 7.287-61.113 6.888v-4.381c0-1.827-.626-3.506-1.666-4.85.7-.662 1.343-1.381 1.929-2.148 2.523 8.535 15.318 9.795 19.595 1.071.285-.581.464-1.137.589-1.558l9.935-33.523c1.709-5.769.203-12.069-3.932-16.441-.307-.325-32.348-34.24-32.699-34.518-2.725-2.159-6.235-2.698-9.387-1.561-3.383-1.282-6.952-1.937-10.641-1.937h-8.54c-16.669 0-30.23 13.562-30.23 30.23v5.66c0 .855-.691 1.55-1.54 1.55-5.334 0-9.02-.262-14.43 1.633l-.06-.02c-32.065 13.183-21.06 56.468 9.668 56.468h11.438v42.453c0 16.023 7.022 30.431 18.142 40.329v27.938h-6.84c-7.077 0-14 5.303-14 15 0 7.72 6.28 14 14 14h20.92c7.72 0 14-6.28 14-14v-29.835c2.541.368 5.136.568 7.778.568h71.562v14.268h-6.83c-7.72 0-14 6.28-14 14 0 9.735 6.979 15 14 15h20.91c7.72 0 14-6.28 14-14v-33.267c8.566-5.046 14.33-14.36 14.33-25.001v-21.298c1.283.638 2.391 1.581 3.198 2.777 2.889 4.279 3.746 8.433 3.746 13.105 0 15.646 19.524 30.573 37.194 8.865 3.269-4.013.409-10.015-4.76-10.015zm-158.774-146.765 32.031 33.872c2.181 2.306 2.975 5.629 2.074 8.671l-9.934 33.522c-.031.105-.059.212-.102.308-.897 1.831-3.49 2.031-4.655.372-.008-.013-.027-.043-.063-.112l-22.12-74.815c-.246-1.564 1.508-2.636 2.769-1.818zm-45.653 26.248v-5.66c0-12.258 9.972-22.23 22.23-22.23 8.976 0 10.17-.13 13.016.452-1.075 3.733-1.475.399 17.744 65.401v3.797c0 5.435-4.417 9.858-9.851 9.869h-32.55c5.251-10.832 5.047-22.45-.72-33.982-3.326-6.65-7.721-11.687-10.435-14.439.36-1.004.566-2.081.566-3.208zm-24.191 11.995c.253.488.17 1.973.17 2.579 0 3.914-3.184 7.097-7.098 7.097-1.295 0-.995 0-2.294 0 1.889-4.012 5.083-7.487 9.222-9.676zm9.83 39.635c-8.606 0-15.892-5.12-19.18-12.42 10.875 8.415 26.651.596 26.651-13.082 0-2.209-1.791-4-4-4s-4 1.791-4 4c0 9.136-12.508 11.879-16.323 3.542h.095c8.325 0 15.098-6.772 15.098-15.097 0-1.918.098-3.139-.494-4.91 3.982-.405 7.319.419 10.369-.749 5.65 5.697 19.985 23.094 7.604 42.715h-15.82zm19.384 8h38.097s-.143-.048 5.928-.056v16.241h-43.981zm30.277 125.72c0 3.309-2.691 6-6 6h-20.92c-8.01 0-8.033-13 0-13h10.84c2.209 0 4-1.791 4-4v-26.026c3.754 2.27 7.805 4.093 12.08 5.401zm107.419 0c0 3.309-2.691 6-6 6h-20.91c-8.01 0-8.033-13 0-13h10.83c2.209 0 4-1.791 4-4v-18.268c5.659 0 8.067.166 12.08-.783zm14.331-58.267c0 11.58-9.421 21-21 21h-9.386c-.008 0-.016-.002-.024-.002s-.016.002-.024.002h-75.539c-25.364 0-46-20.636-46-46v-18.267h130.972c11.579 0 21 9.42 21 21v22.267zm22.944-5.416c0-6.202-1.286-11.91-5.115-17.582-2.512-3.72-6.448-6.206-10.877-6.977-1.42-5.143-4.223-9.715-7.984-13.293h10.576c13.602 0 24.667 11.065 24.667 24.667v6.868c0 5.989 4.021 11.057 9.504 12.648-10.955 11.352-20.771 2.278-20.771-6.331z"/><path d="m153.504 179.683h-16c-2.209 0-4 1.791-4 4s1.791 4 4 4h16c2.209 0 4-1.791 4-4s-1.791-4-4-4z"/><path d="m174.204 179.683h-5.7c-2.209 0-4 1.791-4 4s1.791 4 4 4h5.7c2.209 0 4-1.791 4-4s-1.791-4-4-4z"/></g></svg>