<?xml version="1.0" encoding="UTF-8" standalone="no"?>
<!DOCTYPE svg PUBLIC "-//W3C//DTD SVG 1.1//EN" "http://www.w3.org/Graphics/SVG/1.1/DTD/svg11.dtd">
<svg width="100%" height="100%" viewBox="0 0 512 512" version="1.1" xmlns="http://www.w3.org/2000/svg" xmlns:xlink="http://www.w3.org/1999/xlink" xml:space="preserve" xmlns:serif="http://www.serif.com/" style="fill-rule:evenodd;clip-rule:evenodd;stroke-linejoin:round;stroke-miterlimit:2;">
    <g>
        <g>
            <path d="M437.02,74.98C388.667,26.629 324.38,0 255.999,0C206.85,0 159.101,13.969 117.918,40.397C113.974,42.928 112.829,48.176 115.359,52.121C117.89,56.066 123.14,57.211 127.083,54.679C165.527,30.009 210.106,16.97 255.999,16.97C387.8,16.97 495.028,124.198 495.028,255.999C495.028,298.667 483.65,340.541 462.123,377.096C441.22,412.592 411.335,442.274 375.699,462.935C371.645,465.285 370.263,470.478 372.614,474.532C374.189,477.246 377.038,478.762 379.965,478.762C381.409,478.762 382.874,478.392 384.213,477.616C422.37,455.495 454.368,423.714 476.748,385.707C499.811,346.546 512,301.694 512,255.999C512,187.62 485.372,123.332 437.02,74.98Z" style="fill:rgb(104,102,102);fill-rule:nonzero;"/>
        </g>
    </g>
    <g>
        <g>
            <path d="M355.202,482.986C353.471,478.631 348.537,476.502 344.183,478.232C316.119,489.378 286.45,495.03 255.999,495.03C124.198,495.03 16.97,387.802 16.97,256C16.97,186.151 47.419,119.984 100.511,74.466C104.069,71.416 104.48,66.059 101.43,62.501C98.381,58.944 93.023,58.532 89.466,61.582C32.609,110.329 0,181.192 0,255.999C0,324.378 26.628,388.667 74.98,437.019C123.333,485.371 187.62,512 255.999,512C288.604,512 320.381,505.945 350.448,494.004C354.804,492.274 356.931,487.342 355.202,482.986Z" style="fill:rgb(104,102,102);fill-rule:nonzero;"/>
        </g>
    </g>
    <g>
        <g>
            <path d="M393.848,119.96C393.597,119.619 393.328,119.289 393.02,118.981C392.712,118.673 392.382,118.403 392.041,118.153C357.027,83.594 308.965,62.226 255.999,62.226C203.033,62.226 154.971,83.594 119.957,118.153C119.616,118.403 119.286,118.672 118.978,118.98C118.67,119.288 118.4,119.619 118.15,119.959C83.593,154.973 62.225,203.035 62.225,255.999C62.225,308.963 83.593,357.025 118.151,392.039C118.401,392.38 118.671,392.71 118.979,393.018C119.287,393.326 119.618,393.596 119.958,393.846C154.972,428.404 203.033,449.772 255.998,449.772C308.963,449.772 357.026,428.404 392.04,393.845C392.381,393.595 392.711,393.326 393.019,393.018C393.327,392.71 393.597,392.38 393.847,392.039C428.405,357.026 449.773,308.964 449.773,255.999C449.773,203.034 428.406,154.973 393.848,119.96ZM386.82,374.817L357.946,345.943C354.631,342.629 349.259,342.629 345.945,345.943C342.629,349.257 342.629,354.63 345.943,357.944L374.818,386.818C345.359,413.598 306.85,430.584 264.486,432.596L264.486,391.684C264.486,386.998 260.688,383.199 256.001,383.199C251.314,383.199 247.516,386.998 247.516,391.684L247.516,432.596C205.151,430.584 166.643,413.598 137.184,386.818L166.059,357.944C169.373,354.63 169.373,349.257 166.059,345.945C162.745,342.631 157.373,342.631 154.058,345.945L125.184,374.819C98.404,345.36 81.418,306.851 79.406,264.487L120.317,264.487C125.004,264.487 128.802,260.688 128.802,256.002C128.802,251.316 125.004,247.517 120.317,247.517L79.406,247.517C81.418,205.152 98.404,166.644 125.184,137.185L154.058,166.059C155.715,167.715 157.888,168.545 160.059,168.545C162.23,168.545 164.402,167.717 166.06,166.059C169.374,162.745 169.374,157.372 166.06,154.06L137.185,125.186C166.644,98.406 205.153,81.42 247.517,79.408L247.517,120.32C247.517,125.006 251.315,128.805 256.002,128.805C260.689,128.805 264.487,125.006 264.487,120.32L264.487,79.405C306.852,81.417 345.36,98.403 374.819,125.183L345.944,154.057C342.63,157.371 342.63,162.744 345.944,166.056C347.601,167.713 349.773,168.542 351.945,168.542C354.116,168.542 356.288,167.714 357.946,166.056L386.82,137.182C413.6,166.641 430.586,205.15 432.598,247.514L391.687,247.514C387,247.514 383.202,251.313 383.202,255.999C383.202,260.685 387,264.484 391.687,264.484L432.598,264.484C430.586,306.849 413.599,345.358 386.82,374.817Z" style="fill:rgb(104,102,102);fill-rule:nonzero;"/>
        </g>
    </g>
    <g>
        <g>
            <path d="M319.865,283.864L281.457,245.456L281.457,170.571C281.457,156.534 270.038,145.115 256.001,145.115C241.964,145.115 230.545,156.534 230.545,170.571L230.545,256C230.545,262.801 233.192,269.193 238.001,274L283.865,319.864C288.673,324.672 295.066,327.32 301.865,327.32C308.665,327.32 315.057,324.671 319.864,319.864C324.674,315.057 327.321,308.664 327.321,301.864C327.32,295.064 324.673,288.671 319.865,283.864ZM307.864,307.865C306.262,309.468 304.13,310.351 301.864,310.351C299.598,310.351 297.467,309.468 295.864,307.865L250,262C248.398,260.398 247.516,258.266 247.516,256L247.516,170.571C247.516,165.892 251.322,162.086 256.001,162.086C260.679,162.086 264.486,165.892 264.486,170.572L264.486,252.486L307.865,295.865C309.467,297.468 310.349,299.599 310.349,301.865C310.349,304.131 309.467,306.262 307.864,307.865Z" style="fill:rgb(104,102,102);fill-rule:nonzero;"/>
        </g>
    </g>
</svg>
