<svg id="Icon_Set" enable-background="new 0 0 256 256" height="512" viewBox="0 0 256 256" width="512" xmlns="http://www.w3.org/2000/svg"><path d="m90.035 9.423h-74.553c-5.786 0-10.482 4.69-10.482 10.482 0 5.789 4.693 10.482 10.482 10.482h49.56c-2.754 15.676 9.319 29.805 24.993 29.805 14.02 0 25.385-11.365 25.385-25.385 0-14.019-11.365-25.384-25.385-25.384z" fill="#ff4a73"/><path d="m155.702 88.167v38.212c0 6.172-5.002 11.183-11.175 11.183h-46.32c-5.572 0-10.613-2.258-14.265-5.91-10.117-10.117-6.797-27.423 6.6-32.94 2.363-.968 4.95-1.508 7.665-1.508h3.877c1.238 0 2.355-.503 3.165-1.32.802-.803 1.305-1.92 1.305-3.15v-4.567c0-11.67 9.465-21.135 21.135-21.135h6.885c11.671 0 21.128 9.465 21.128 21.135z" fill="#b76c6c"/><path d="m136.757 67.144c-10.643 1.095-18.952 10.087-18.952 21.023v4.567c0 1.23-.503 2.348-1.305 3.15-.81.817-1.928 1.32-3.165 1.32h-3.877c-2.715 0-5.303.54-7.665 1.508-13.395 5.52-16.717 22.822-6.6 32.94 3.652 3.652 8.693 5.91 14.265 5.91h-11.25c-5.572 0-10.613-2.258-14.265-5.91-10.117-10.117-6.795-27.42 6.6-32.94 2.363-.968 4.95-1.508 7.665-1.508h3.877c1.238 0 2.355-.503 3.165-1.32.802-.803 1.305-1.92 1.305-3.15v-4.567c0-11.67 9.465-21.135 21.135-21.135h6.885c.735 0 1.462.037 2.182.112z" fill="#c98585"/><path d="m148.714 69.154c-3.446-2.73-8.418.347-7.512 4.649l17.945 60.693c.124.269.258.536.429.779 2.349 3.343 7.482 2.948 9.286-.73.118-.24.202-.495.278-.751l8.005-27.015c1.056-3.563.134-7.419-2.42-10.119z" fill="#b76c6c"/><path d="m251.036 178.962c-4.117-5.063-8.138-7.582-12.292-7.582-1.073 0-2.16.165-3.255.502-5.258 1.62-8.708 6.682-8.708 12.188v.69c0 4.208-1.268 8.265-3.57 11.67-.592.878-1.635 1.635-2.805 2.265-2.722 1.478-5.82 2.145-8.917 2.145h-8.52l4.29 16.958h11.948c6.375 0 12.15-2.588 16.335-6.765 4.177-4.185 6.765-9.96 6.765-16.342v-5.535c0-4.08 3.307-7.38 7.387-7.38 1.028 0 1.733-.84 1.733-1.733-.001-.376-.121-.751-.391-1.081z" fill="#965959"/><path d="m110.651 164.817-13.14 68.422h-11.985c-4.447 0-8.055 3.608-8.055 8.055v.803c0 4.455 3.607 8.063 8.055 8.063h8.738 8.123c4.447 0 8.055-3.608 8.055-8.063l10.384-48.71z" fill="#b76c6c"/><path d="m152.529 157.052h-41.882v-16.312c0-1.756 1.423-3.179 3.179-3.179h35.523c1.756 0 3.179 1.423 3.179 3.179v16.312z" fill="#ff4a73"/><path d="m112.682 137.562h-14.475c-5.572 0-10.613-2.258-14.265-5.91s-5.91-8.7-5.91-14.273c0-1.733.218-3.42.63-5.032 1.59-6.195 6.053-11.235 11.88-13.635 2.363-.968 4.95-1.508 7.665-1.508h3.877c1.238 0 2.355-.503 3.165-1.32v.008c.001 0 23.123 19.447 7.433 41.67z" fill="#ffbb98"/><path d="m125.08 137.562c-1.763 0-3.18 1.425-3.18 3.18v16.313h-11.25v-16.313c0-1.755 1.418-3.18 3.18-3.18z" fill="#f973a3"/><path d="m152.53 140.742v16.313h-11.25v-16.313c0-1.755-1.425-3.18-3.18-3.18h11.25c1.755 0 3.18 1.425 3.18 3.18z" fill="#ea2a6a"/><path d="m169.667 132.027c-.343 1.158-.575 2.034-.803 2.52-1.958 3.98-7.773 4.071-9.72-.052l-17.94-60.69c-.908-4.305 4.065-7.38 7.507-4.65l3.645 3.855c.007.262.037.525.098.795z" fill="#c98585"/><path d="m109.457 137.562c-10.87 0-18.367 1.238-25.515-5.91-3.255-3.256-5.002-7.484-5.002-8.273-4.074-11.811 4.896-26.175 19.268-26.175h3.877c1.238 0 2.355-.503 3.165-1.32v.008s.622.525 1.59 1.492c-1.763.217-3.458.675-5.048 1.328-13.395 5.52-16.717 22.822-6.6 32.94 3.653 3.652 8.693 5.91 14.265 5.91z" fill="#ffcaa6"/><path d="m109.457 137.562c-10.87 0-18.367 1.238-25.515-5.91-3.255-3.256-5.002-7.484-5.002-8.273-4.066-11.79 4.863-26.175 19.268-26.175h3.877c1.238 0 2.355-.503 3.165-1.32v.008s.622.525 1.59 1.492c-1.763.217-3.458.675-5.048 1.328-13.395 5.52-16.717 22.822-6.6 32.94 3.653 3.652 8.693 5.91 14.265 5.91z" fill="#ffcaa6"/><path d="m93.644 102.968v1.507c0 4.941-4.007 8.943-8.943 8.943h-1.807c-1.534 0-2.974-.385-4.235-1.069 1.592-6.198 6.055-11.242 11.886-13.638 1.798.582 3.099 2.263 3.099 4.257z" fill="#b76c6c"/><path d="m20 19.91c0 5.78 4.69 10.48 10.48 10.48h-15c-5.79 0-10.48-4.7-10.48-10.48 0-5.8 4.7-10.49 10.48-10.49h15c-5.78 0-10.48 4.69-10.48 10.49z" fill="#f973a3"/><path d="m191.52 187.206-39.02-30.007h-41.881v19.915c0 17.719 4.93 38.081 28.142 34.717 1.443-.209 2.871.468 3.669 1.688l4.488 6.867c.532.814.727 1.803.544 2.759l-1.966 10.237h-11.982c-10.585 0-10.837 16.923 0 16.923h57.577c1.929 0 2.8-1.131 4.105-2.414 17.454-17.148 15.72-45.768-3.676-60.685z" fill="#b76c6c"/><path d="m148.51 250.31h-15c-10.74 0-10.78-16.93 0-16.93h15c-10.74 0-10.78 16.93 0 16.93z" fill="#c98585"/><path d="m141.11 210.94c-1 .44-1.88.82-2.35.89-23.21 3.36-28.14-17-28.14-34.72v-19.91h15v19.91c0 13.88 3.03 29.38 15.49 33.83z" fill="#c98585"/><path d="m193.91 249.15c-1.566 1.546-1.696 1.16-17.82 1.16 1.06 0 2.07-.42 2.82-1.16 20.175-19.703 15.939-47.853-2.39-61.94l-39.02-30.01h15l39.02 30.01c18.226 14.008 22.662 42.141 2.39 61.94z" fill="#965959"/><g fill="#5f266d"><circle cx="120.195" cy="95.123" r="4.323"/><path d="m254.1 176.571c-5.306-6.504-11.868-10.821-19.817-8.364-6.31 1.943-11.533 7.924-11.533 16.703 0 3.372-.998 6.634-2.877 9.421-.003.004-.293.392-1.399.992-3.746 2.031-6.972 1.667-13.177 1.667-2.867-4.961-6.69-9.38-11.338-12.955l-37.459-28.806v-14.342c0-1.4-.409-2.704-1.105-3.81.104-.108.202-.222.303-.333 3.671 7.243 14.845 6.427 17.248-1.667l8.006-27.015c1.456-4.914.173-10.28-3.349-14.004-.308-.325-26.083-27.614-26.434-27.892-2.328-1.845-5.299-2.333-8.013-1.461-5.028-1.842-8.315-1.524-15.496-1.524-13.857 0-25.13 11.273-25.13 25.13v4.57c0 .259-.211.47-.47.47-4.269 0-7.243-.208-11.624 1.278l-.084-.027c-27.117 11.142-17.696 47.109 7.829 47.109h8.438v22.88l-12.443 64.79h-8.676c-6.055 0-12.06 4.548-12.06 12.87 0 6.65 5.41 12.06 12.06 12.06h16.86c4.328 0 8.34-2.342 10.461-6.092.963-1.683 1.506-3.579 1.58-5.527l6.342-29.88c5.002 3.008 11.175 4.021 18.409 3.005l4.363 6.674-1.324 6.892h-8.677c-6.045 0-12.059 4.536-12.059 12.865 0 6.649 5.41 12.059 12.059 12.059h57.577c2.117 0 4.115-.817 5.627-2.302 8.543-8.397 13.665-17.895 14.432-30.064h8.03c14.943 0 27.1-12.157 27.1-27.1v-5.54c0-1.864 1.521-3.38 3.39-3.38 3.154 0 5.72-2.57 5.72-5.73 0-1.336-.447-2.588-1.29-3.62zm-108.052-104.237 25.742 27.22c1.567 1.658 2.139 4.047 1.491 6.235l-8.005 27.012c-.017.058-.033.117-.036.129-.473.965-1.825 1.018-2.386.243l-17.786-60.156c-.059-.526.562-.897.98-.683zm-56.433 31.502c0 3.981-2.252 5.729-5.498 5.729 1.386-2.435 3.251-4.32 5.498-5.729zm16.253 140.425c-.715 1.264-2.059 2.049-3.508 2.049h-16.86c-5.443 0-5.424-8.93 0-8.93h15.285l8.036-41.841c1.205 4.294 2.899 7.953 5.086 10.949-.013.058-8.009 37.721-8.039 37.773zm4.626-110.551h-12.314c-5.162 0-10.171-2.438-13.332-7.025 1.827.865 3.86 1.363 6.011 1.363 7.783 0 14.114-6.332 14.114-14.114 0-2.209-1.791-4-4-4s-4 1.791-4 4c0 3.372-2.743 6.114-6.114 6.114-2.039 0-3.843-1.007-4.954-2.545 7.924-.753 13.122-8.356 11.512-16.116 3.765-.175 5.065.241 7.185-.428 4.61 4.736 14.985 17.867 5.892 32.751zm-.296-38.506c.868-3.036-.354-7.042 1.045-11.756.012 3.519 4.253 5.311 6.779 2.857.219-.213 2.233-2.017 5.21.291 1.745 1.352 4.258 1.035 5.612-.712 1.353-1.746 1.034-4.259-.712-5.612-6.764-5.24-13.214-2.102-15.68.291-.044.043-.074.093-.116.137 2.809-5.633 8.614-9.521 15.325-9.521 7.704 0 7.696-.062 9.565.231-.501 2.795-1.106-.445 14.455 52.185v2.934c0 3.939-3.19 7.146-7.122 7.177h-25.061c6.99-15.937-1.648-30.802-9.3-38.502zm38.302 46.503v11.492h-33.882v-11.489c28.267 0 33.781-.003 33.882-.003zm42.59 104.599h-57.577c-5.442 0-5.422-8.923 0-8.923h11.982c1.918 0 3.566-1.362 3.928-3.246l1.966-10.237c.381-1.985-.018-4.011-1.124-5.702l-4.488-6.867c-1.653-2.53-4.631-3.89-7.591-3.458-6.591.953-11.602-.146-15.321-3.365-6.817-5.901-8.248-18.154-8.248-27.394v-15.915h36.521l37.941 29.178c16.318 12.546 20.538 37.895 2.011 55.929zm47.19-57.006v5.54c0 10.532-8.568 19.1-19.1 19.1h-8.24c-.363-3.067-1.042-6.064-2.015-8.95 3.013 0 7.978.285 13.364-2.635 5.952-3.232 8.461-11.276 8.461-17.445 0-8.039 7.437-12.807 14.543-6.117-4.114 1.718-7.013 5.78-7.013 10.507z"/><path d="m176.423 186.655-2.922-2.061c-1.806-1.273-4.302-.841-5.574.964-1.273 1.806-.841 4.301.964 5.574l2.922 2.061c1.806 1.274 4.302.841 5.574-.964 1.273-1.806.841-4.301-.964-5.574z"/><path d="m161.24 175.951-8.99-6.338c-1.805-1.273-4.301-.841-5.574.964s-.841 4.301.964 5.574l8.99 6.338c4.336 3.059 8.91-3.506 4.61-6.538z"/><path d="m119.42 34.808c0-16.203-13.182-29.385-29.385-29.385h-74.553c-7.985 0-14.482 6.496-14.482 14.482s6.497 14.482 14.482 14.482h45.175c-.105 7.014 2.294 13.858 6.869 19.306 5.602 6.672 13.806 10.499 22.509 10.499 16.203 0 29.385-13.182 29.385-29.384zm-45.768 13.742c-4.068-4.845-5.77-11.212-4.671-17.47.43-2.449-1.457-4.692-3.939-4.692h-49.56c-3.574 0-6.482-2.909-6.482-6.483s2.908-6.482 6.482-6.482h74.553c11.792 0 21.385 9.593 21.385 21.385s-9.593 21.385-21.385 21.385c-6.333-.001-12.305-2.786-16.383-7.643z"/><path d="m130.282 33.796h19.13c2.209 0 4-1.791 4-4s-1.791-4-4-4h-19.13c-2.209 0-4 1.791-4 4s1.791 4 4 4z"/><path d="m132.051 18.318 19.13-9.434c1.981-.977 2.795-3.375 1.818-5.356-.977-1.982-3.376-2.797-5.356-1.818l-19.13 9.434c-1.981.977-2.795 3.375-1.818 5.356.977 1.983 3.377 2.795 5.356 1.818z"/><path d="m128.462 51.227 20.197 6.856c5.064 1.723 7.53-5.892 2.571-7.575l-20.197-6.856c-2.091-.711-4.363.41-5.073 2.502s.411 4.363 2.502 5.073z"/></g></svg>