<svg id="Icon_Set" enable-background="new 0 0 256 256" height="512" viewBox="0 0 256 256" width="512" xmlns="http://www.w3.org/2000/svg"><path d="m124.035 34.274v50.95c0 8.23-6.67 14.91-14.9 14.91h-61.76c-7.43 0-14.15-3.01-19.02-7.88-13.489-13.489-9.062-36.564 8.8-43.92 3.15-1.29 6.6-2.01 10.22-2.01h5.17c1.65 0 3.14-.67 4.22-1.76 1.07-1.07 1.74-2.56 1.74-4.2v-6.09c0-15.56 12.62-28.18 28.18-28.18h9.18c15.56 0 28.17 12.62 28.17 28.18z" fill="#b76c6c"/><path d="m98.775 6.244c-14.19 1.46-25.27 13.45-25.27 28.03v6.09c0 1.64-.67 3.13-1.74 4.2-1.08 1.09-2.57 1.76-4.22 1.76h-5.17c-3.62 0-7.07.72-10.22 2.01-17.86 7.36-22.29 30.43-8.8 43.92 4.87 4.87 11.59 7.88 19.02 7.88h-15c-7.43 0-14.15-3.01-19.02-7.88-13.49-13.49-9.06-36.56 8.8-43.92 3.15-1.29 6.6-2.01 10.22-2.01h5.17c1.65 0 3.14-.67 4.22-1.76 1.07-1.07 1.74-2.56 1.74-4.2v-6.09c0-15.56 12.62-28.18 28.18-28.18h9.18c.98 0 1.95.05 2.91.15z" fill="#c98585"/><path d="m114.717 8.923c-4.594-3.64-11.224.463-10.016 6.199l23.926 80.924c.166.359.344.715.571 1.038 3.132 4.458 9.977 3.931 12.381-.973.157-.32.269-.66.371-1.001l10.674-36.02c1.408-4.751.179-9.892-3.226-13.492z" fill="#b76c6c"/><path d="m63.967 136.474-17.52 91.23h-15.98c-5.93 0-10.74 4.81-10.74 10.74v1.07c0 5.94 4.81 10.75 10.74 10.75h11.65 10.83c5.93 0 10.74-4.81 10.74-10.75l13.845-64.947z" fill="#b76c6c"/><path d="m171.831 166.131-52.027-40.01h-55.842v26.553l41.771 67.39c2.065 3.331-.331 7.634-4.25 7.634h-6.994c-5.934 0-10.745 4.811-10.745 10.745v1.075c0 5.934 4.811 10.745 10.745 10.745h11.643 10.832 54.294c1.409 0 2.761-.553 3.766-1.54l1.708-1.679c23.273-22.864 20.961-61.025-4.901-80.913z" fill="#b76c6c"/><path d="m119.804 126.121h-55.842v-21.749c0-2.341 1.898-4.239 4.239-4.239h47.364c2.341 0 4.239 1.898 4.239 4.239z" fill="#ff4a73"/><path d="m66.675 100.134h-19.3c-7.43 0-14.15-3.01-19.02-7.88s-7.88-11.6-7.88-19.03c0-2.31.29-4.56.84-6.71 2.12-8.26 8.07-14.98 15.84-18.18 3.15-1.29 6.6-2.01 10.22-2.01h5.17c1.65 0 3.14-.67 4.22-1.76v.01s30.83 25.93 9.91 55.56z" fill="#ffbb98"/><path d="m116.485 227.703h-7c-5.932 0-10.74 4.808-10.74 10.74v1.07c0 5.94 4.81 10.75 10.74 10.75h-15c-5.932 0-10.74-4.808-10.74-10.74v-1.08c0-5.932 4.808-10.74 10.74-10.74h7c3.92 0 6.31-4.31 4.25-7.64l-41.77-67.39v-26.55h15v20.854c0 3.723 1.039 7.372 3.001 10.537l38.769 62.549c2.06 3.331-.33 7.64-4.25 7.64z" fill="#c98585"/><path d="m251.147 155.333c-5.49-6.75-10.85-10.11-16.39-10.11-1.43 0-2.88.22-4.34.67-7.01 2.16-11.61 8.91-11.61 16.25v.92c0 5.61-1.69 11.02-4.76 15.56-.79 1.17-2.18 2.18-3.74 3.02-3.63 1.97-7.76 2.86-11.89 2.86h-11.36l.008.03c-3.588-7.088-8.745-13.413-15.229-18.4l-52.03-40.01h-15l52.03 40.01c24.192 18.607 30.278 55.979 3.19 82.59-1.01.99-2.36 1.54-3.77 1.54 15.93 0 16.695.494 18.77-1.54 12.717-12.493 18.133-27.391 17.771-41.61h15.911c8.5 0 16.2-3.45 21.78-9.02 5.57-5.58 9.02-13.28 9.02-21.79v-7.38c0-5.44 4.41-9.84 9.85-9.84 1.37 0 2.31-1.12 2.31-2.31-.001-.499-.161-.999-.521-1.44z" fill="#965959"/><path d="m83.205 100.134c-2.35 0-4.24 1.9-4.24 4.24v21.75h-15v-21.75c0-2.34 1.89-4.24 4.24-4.24z" fill="#f973a3"/><path d="m119.805 104.374v21.75h-15v-21.75c0-2.34-1.9-4.24-4.24-4.24h15c2.34 0 4.24 1.9 4.24 4.24z" fill="#ea2a6a"/><path d="m142.655 92.754c-.458 1.544-.766 2.712-1.07 3.36-2.61 5.307-10.364 5.428-12.96-.07l-23.92-80.92c-1.21-5.74 5.42-9.84 10.01-6.2l4.86 5.14c.01.35.05.7.13 1.06z" fill="#c98585"/><path d="m62.375 100.134c-14.494 0-24.489 1.651-34.02-7.88-4.341-4.341-6.67-9.978-6.67-11.03-5.431-15.747 6.528-34.9 25.69-34.9h5.17c1.65 0 3.14-.67 4.22-1.76v.01s.83.7 2.12 1.99c-2.35.29-4.61.9-6.73 1.77-17.86 7.36-22.29 30.43-8.8 43.92 4.87 4.87 11.59 7.88 19.02 7.88z" fill="#ffcaa6"/><path d="m62.375 100.134c-14.494 0-24.489 1.651-34.02-7.88-4.341-4.341-6.67-9.978-6.67-11.03-5.422-15.72 6.484-34.9 25.69-34.9h5.17c1.65 0 3.14-.67 4.22-1.76v.01s.83.7 2.12 1.99c-2.35.29-4.61.9-6.73 1.77-17.86 7.36-22.29 30.43-8.8 43.92 4.87 4.87 11.59 7.88 19.02 7.88z" fill="#ffcaa6"/><path d="m41.291 54.009v2.009c0 6.588-5.342 11.924-11.924 11.924h-2.409c-2.045 0-3.965-.513-5.646-1.425 2.123-8.264 8.073-14.989 15.847-18.185 2.397.776 4.132 3.018 4.132 5.677z" fill="#b76c6c"/><path d="m36.73 81.47-17.813 16.685c-3.56 3.19-9.04 2.89-12.24-.67-1.48-1.66-2.21-3.72-2.21-5.78 0-2.38.98-4.75 2.89-6.46l16.843-15.835c.67 6.5 5.95 11.63 12.53 12.06z" fill="#ff4a73"/><g fill="#5f266d"><path d="m93.097 41.632c.953-1.993.11-4.381-1.883-5.334-1.994-.956-4.382-.111-5.334 1.883-.699 1.46-2.754 4.22-4.191 4.287-.906.034-2.593-1.146-4.671-4.616-1.135-1.896-3.59-2.511-5.486-1.377-1.896 1.135-2.512 3.591-1.377 5.487 7.727 12.909 18.137 9.719 22.942-.33z"/><path d="m254.25 152.393c-18.719-23.016-39.443-7.276-39.443 9.334 0 5.147-.969 9.649-4.075 14.241-.738 1.092-5.371 4.119-12.315 4.119h-9.65c-3.904-7.163-9.278-13.53-15.897-18.621l-49.065-37.732v-19.78c0-1.994-.713-3.824-1.896-5.251.961-.884 1.831-1.861 2.593-2.924 2.945 9.961 16.311 10.568 20.671 1.674.49-1-.201 1.125 11.288-37.645 1.808-6.098.216-12.756-4.154-17.377-.307-.325-34.754-36.783-35.104-37.061-2.873-2.277-6.582-2.827-9.899-1.593-3.627-1.39-7.463-2.098-11.432-2.098h-9.18c-17.744 0-32.18 14.431-32.18 32.17v6.09c0 1.081-.879 1.96-1.96 1.96h-5.17c-16.466 0-29.972 12.927-30.857 29.238l-11.837 11.128c-5.146 4.609-5.716 12.59-.986 17.894 2.493 2.773 5.943 4.19 9.417 4.19 3.031 0 6.082-1.078 8.532-3.274l5.37-5.03c5.637 4.953 12.788 7.666 20.359 7.666h12.594c-.002.082-.012.162-.012.245v21.75.194c0 6.504-.622 13.041-1.849 19.428l-14.971 77.96h-12.675c-7.415 0-14.74 5.546-14.74 15.81 0 8.133 6.617 14.75 14.75 14.75h22.47c7.976 0 14.492-6.372 14.733-14.296l11.691-54.842 22.963 37.047c.256.413.154.779.024 1.013s-.388.514-.874.514h-6.995c-7.42 0-14.745 5.549-14.745 15.819 0 8.13 6.615 14.745 14.745 14.745h76.14c2.879 0 5.595-1.111 7.646-3.127 10.84-10.65 17.105-24.986 17.675-40.022h12.756c9.286 0 18.024-3.619 24.611-10.194 11.384-11.405 10.189-23.883 10.189-31.996 0-3.22 2.624-5.84 5.85-5.84 5.312-.002 8.233-6.198 4.894-10.276zm-142.199-140.884 34.442 36.419c2.416 2.555 3.296 6.236 2.297 9.608l-10.674 36.021c-.79 2.666-4.639 2.83-5.742.632l-23.781-80.433c-.321-1.943 1.87-3.308 3.458-2.247zm-49.541 22.341c0-13.327 10.847-24.17 24.18-24.17h9.18c1.769 0 3.501.187 5.184.555-.537 1.662-.65 3.475-.267 5.294.022.104.048.208.078.31l19.174 64.852v4.119c0 6.01-4.89 10.9-10.9 10.9h-35.404c12.125-24.261-5.137-45.306-11.891-52.218.838-2.186.666-3.1.666-9.642zm53.294 70.105v17.75h-47.842v-17.75c0-.132.107-.239.239-.239h47.364c.132 0 .239.107.239.239zm-78.888-51.518c.536.728.375 1.44.375 3.164 0 4.37-3.555 7.924-7.924 7.924-.451 0-2.511.009-2.918-.016 2.067-4.636 5.72-8.617 10.467-11.072zm-20.669 42.739c-4.561 4.085-10.887-2.768-6.151-7.017l12.277-11.542c1.56 2.772 3.851 5.063 6.615 6.624zm16.649-4.634 5.417-5.074c9.318-.37 16.789-8.043 16.789-17.45 0-2.209-1.791-4-4-4s-4 1.791-4 4c0 10.502-14.466 13.072-18.29 3.508 10.057 0 16.479-7.674 16.479-15.924 0-2.161.113-3.51-.643-5.521 4.827-.575 8.215.462 11.604-.902 13.106 13.258 18.58 30.382 8.283 46.532-17.491-.001-23.826 1.228-31.639-5.169zm139.772 154.471c-.547.538-1.271.833-2.039.833h-76.14c-9.004 0-9.028-14.564 0-14.564h6.995c3.263 0 6.276-1.771 7.864-4.623 1.587-2.852 1.505-6.346-.214-9.119l-28.202-45.499c-.86-1.388-2.479-2.108-4.086-1.833-1.609.28-2.886 1.51-3.226 3.107-14.819 69.516-13.933 65.125-13.933 65.781 0 3.722-3.023 6.75-6.74 6.75h-22.47c-9.012 0-9.029-14.56-.01-14.56h15.98c1.918 0 3.566-1.362 3.928-3.246l15.595-81.206c1.083-5.638 1.729-11.385 1.927-17.131h50.547l49.548 38.104c24.677 18.978 26.86 55.411 4.676 77.206zm62.839-76.506v7.38c0 14.853-12.02 26.81-26.8 26.81h-13c-.491-5.036-1.619-9.938-3.328-14.61 6.408 0 12.736.508 19.825-3.338 2.382-1.283 4.069-2.69 5.157-4.301 4.081-6.036 5.446-12.115 5.446-18.721 0-7.199 5.617-12.92 11.95-12.92 3.596 0 7.288 2.055 11.233 6.273-6.015 1.507-10.483 6.955-10.483 13.427z"/><path d="m150.933 166.069-3.624-2.555c-1.806-1.274-4.302-.841-5.574.964-1.273 1.806-.841 4.301.964 5.574l3.624 2.555c4.333 3.056 8.911-3.505 4.61-6.538z"/><path d="m135.049 154.871-16.346-11.524c-1.805-1.274-4.301-.842-5.574.964-1.273 1.805-.841 4.301.964 5.574l16.346 11.524c1.803 1.272 4.3.843 5.574-.964 1.273-1.806.841-4.301-.964-5.574z"/><path d="m14.593 27.877 31.324 10.74c5.061 1.737 7.546-5.87 2.595-7.567l-31.309-10.735c-5.808-2.018-8.985-8.417-7.082-14.263.684-2.101-.465-4.358-2.565-5.042-8.459-2.748-9.725 21.044 7.037 26.867z"/><path d="m3.353 39.216 19.298 7.688c2.044.815 4.376-.176 5.196-2.235.818-2.052-.183-4.379-2.235-5.196l-19.298-7.689c-2.051-.818-4.378.183-5.196 2.235-.818 2.053.183 4.379 2.235 5.197z"/></g></svg>