<svg id="Icon_Set" enable-background="new 0 0 256 256" height="512" viewBox="0 0 256 256" width="512" xmlns="http://www.w3.org/2000/svg"><circle id="XMLID_64_" cx="225.859" cy="121.662" fill="#5fcdff" r="13.895"/><path id="XMLID_61_" d="m233.365 133.359c-2.16 1.4-4.74 2.2-7.51 2.2-7.67 0-13.89-6.22-13.89-13.9 0-7.67 6.22-13.89 13.89-13.89 2.77 0 5.35.81 7.51 2.2-3.85 2.46-6.4 6.78-6.4 11.69 0 4.92 2.55 9.24 6.4 11.7z" fill="#73d7f9"/><path id="XMLID_60_" d="m164.371 239.153h-72.752c-27.614 0-50-22.386-50-50v-32.87h172.752v32.87c0 27.614-22.386 50-50 50z" fill="#ffe2e2"/><path id="XMLID_585_" d="m169.185 75.309v63.49h-84.33v-63.49c0-12.98 6.17-24.51 15.74-31.82 6.73-5.14 15.15-8.2 24.28-8.2h4.28c9.14 0 17.55 3.06 24.29 8.21 9.57 7.31 15.74 18.83 15.74 31.81z" fill="#b76c6c"/><circle id="XMLID_57_" cx="18.656" cy="87.041" fill="#5fcdff" r="13.895"/><circle id="XMLID_86_" cx="37.278" cy="30.747" fill="#5fcdff" r="25.755"/><circle id="XMLID_56_" cx="203.631" cy="38.424" fill="#5fcdff" r="13.895"/><circle id="XMLID_55_" cx="237.326" cy="64.01" fill="#5fcdff" r="13.895"/><circle id="XMLID_54_" cx="33.9" cy="123.445" fill="#5fcdff" r="13.895"/><path id="XMLID_438_" d="m169.435 25.159c0 8.63-6.58 15.73-15 16.54-.53.05-1.07.08-1.62.08-2.66 0-5.17-.63-7.4-1.75-2.22 7.53-9.17 13.02-17.42 13.02s-15.2-5.49-17.42-13.02c-2.23 1.12-4.74 1.75-7.4 1.75-.55 0-1.09-.03-1.62-.08-8.42-.81-15-7.91-15-16.54 0-8.62 6.58-15.72 15-16.53.53-.05 1.07-.08 1.62-.08 4.08 0 7.82 1.48 10.71 3.92 2.93-4.71 8.15-7.87 14.11-7.87s11.18 3.16 14.11 7.87c2.89-2.44 6.63-3.92 10.71-3.92.55 0 1.09.03 1.62.08 8.42.81 15 7.91 15 16.53z" fill="#5fcdff"/><path id="XMLID_53_" d="m44.775 55.389c-2.37.72-4.89 1.11-7.5 1.11-14.22 0-25.75-11.53-25.75-25.75 0-14.23 11.53-25.76 25.75-25.76 2.61 0 5.13.39 7.5 1.11-10.56 3.21-18.25 13.03-18.25 24.65 0 11.61 7.69 21.43 18.25 24.64z" fill="#73d7f9"/><path id="XMLID_581_" d="m100.595 43.489c-.49 3.33-.74 6.76-.74 10.28v85.03h-15v-63.49c0-12.98 6.17-24.51 15.74-31.82z" fill="#c98585"/><path id="XMLID_582_" d="m169.185 75.309v63.49h-15v-85.03c0-3.51-.25-6.95-.74-10.27 9.57 7.31 15.74 18.83 15.74 31.81z" fill="#965959"/><path id="XMLID_146_" d="m158.503 156.284h-61.016c-10.183 0-18.437-8.255-18.437-18.437v-4.344c0-25.66 20.801-46.461 46.461-46.461h4.968c25.66 0 46.461 20.801 46.461 46.461v4.344c0 10.182-8.254 18.437-18.437 18.437z" fill="#ffbb98"/><path id="XMLID_614_" d="m176.945 133.499v4.35c0 10.18-8.26 18.43-18.44 18.43h-15c10.18 0 18.44-8.25 18.44-18.43v-4.35c0-23.96-18.15-43.69-41.45-46.19 1.65-.18 3.32-.27 5.02-.27h4.96c25.66 0 46.47 20.8 46.47 46.46z" fill="#ffaa80"/><path id="XMLID_607_" d="m112.498 156.28h-15c-10.18 0-18.44-8.25-18.44-18.43v-4.35c0-25.66 20.81-46.46 46.47-46.46h4.96c1.7 0 3.37.09 5.02.27-23.3 2.5-41.45 22.23-41.45 46.19v4.35c0 10.18 8.26 18.43 18.44 18.43z" fill="#ffcaa6"/><path d="m144.925 111.049v1.55c0 6.49-3.85 12.07-9.39 14.6-2.02.93-4.27 1.44-6.64 1.44h-1.72c-8.86 0-16.03-7.18-16.03-16.04v-1.55c0-4.43 3.58-8.02 8.01-8.02h17.75c4.43 0 8.02 3.59 8.02 8.02z" fill="#b76c6c"/><path id="XMLID_149_" d="m45.31 73.229 11.97 40.393c.101.341.214.682.372 1.001 2.241 4.503 8.548 4.977 11.437.864.21-.299.375-.629.529-.961l33.295-72.038-53.434 21.842c-3.718 1.184-5.639 5.285-4.169 8.899z" fill="#b76c6c"/><path id="XMLID_52_" d="m210.71 73.999-11.97 40.393c-.101.341-.214.682-.372 1.001-2.241 4.504-8.548 4.977-11.438.864-.21-.299-.375-.628-.529-.96l-33.295-72.037 53.435 21.84c3.719 1.184 5.64 5.285 4.169 8.899z" fill="#b76c6c"/><path id="XMLID_50_" d="m140.705 43.489c1.16 0 2.31-.09 3.42-.26-3.02 5.84-9.1 9.82-16.13 9.82-8.25 0-15.2-5.49-17.42-13.02-2.23 1.12-4.74 1.75-7.4 1.75-.55 0-1.09-.03-1.62-.08-8.42-.81-15-7.91-15-16.54 0-4.01 1.42-7.7 3.8-10.57 3.484 12.6 17.626 18.524 28.87 12.84 2.73 9.29 11.3 16.06 21.48 16.06z" fill="#73d7f9"/><path id="XMLID_49_" d="m26.165 98.739c-2.16 1.4-4.74 2.2-7.51 2.2-7.67 0-13.89-6.22-13.89-13.9 0-7.67 6.22-13.89 13.89-13.89 2.77 0 5.35.81 7.51 2.2-3.85 2.46-6.4 6.78-6.4 11.69 0 4.92 2.55 9.24 6.4 11.7z" fill="#73d7f9"/><path id="XMLID_48_" d="m41.405 135.139c-2.16 1.4-4.74 2.2-7.51 2.2-7.67 0-13.89-6.22-13.89-13.89 0-7.68 6.22-13.9 13.89-13.9 2.77 0 5.35.81 7.51 2.2-3.85 2.46-6.4 6.78-6.4 11.7 0 4.91 2.55 9.23 6.4 11.69z" fill="#73d7f9"/><path id="XMLID_47_" d="m211.125 50.119c-3.19 2.05-7.2 2.79-11.15 1.71-7.41-2.02-11.77-9.66-9.75-17.06 2.02-7.41 9.66-11.77 17.06-9.75 1.4.38 2.69.97 3.85 1.71-2.8 1.79-4.96 4.58-5.91 8.04-1.64 6 .92 12.16 5.9 15.35z" fill="#73d7f9"/><path id="XMLID_42_" d="m244.815 75.709c-3.19 2.05-7.2 2.79-11.15 1.71-7.4-2.03-11.76-9.66-9.74-17.07 2.02-7.4 9.66-11.76 17.06-9.74 1.4.38 2.68.96 3.84 1.71-2.79 1.79-4.96 4.58-5.9 8.03-1.64 6.01.92 12.16 5.89 15.36z" fill="#73d7f9"/><path d="m135.535 127.199c-2.02.93-4.27 1.44-6.64 1.44h-1.72c-8.86 0-16.03-7.18-16.03-16.04v-1.55c0-4.43 3.58-8.02 8.01-8.02h15c-4.43 0-8.01 3.59-8.01 8.02v1.55c0 6.49 3.85 12.08 9.39 14.6z" fill="#c98585"/><path id="XMLID_720_" d="m106.615 239.149h-15c-27.61 0-50-22.38-50-50v-32.87h15v32.87c0 27.62 22.39 50 50 50z" fill="#ffefee"/><path id="XMLID_747_" d="m214.375 156.279v32.87c0 27.62-22.39 50-50 50h-15c27.61 0 50-22.38 50-50v-32.87z" fill="#ffcfcf"/><path id="XMLID_158_" d="m231.663 160.721v8.154c0 2.451-1.987 4.437-4.437 4.437h-198.462c-2.451 0-4.437-1.987-4.437-4.437v-8.154c0-2.451 1.987-4.437 4.437-4.437h198.461c2.451 0 4.438 1.986 4.438 4.437z" fill="#ffe2e2"/><path id="XMLID_665_" d="m231.665 160.719v8.16c0 2.45-1.99 4.43-4.44 4.43h-15c2.45 0 4.44-1.98 4.44-4.43v-8.16c0-2.45-1.99-4.44-4.44-4.44h15c2.45 0 4.44 1.99 4.44 4.44z" fill="#ffcfcf"/><path id="XMLID_664_" d="m43.765 173.309h-15c-2.45 0-4.44-1.98-4.44-4.43v-8.16c0-2.45 1.99-4.44 4.44-4.44h15c-2.45 0-4.44 1.99-4.44 4.44v8.16c0 2.45 1.99 4.43 4.44 4.43z" fill="#ffefee"/><path id="XMLID_39_" d="m63.794 173.307h-16c-5.523 0-10-4.477-10-10v-5.245c0-8.284 6.716-15 15-15h6c8.284 0 15 6.716 15 15v5.245c0 5.523-4.477 10-10 10z" fill="#b76c6c"/><path id="XMLID_38_" d="m208.196 173.307h-16c-5.523 0-10-4.477-10-10v-5.245c0-8.284 6.716-15 15-15h6c8.284 0 15 6.716 15 15v5.245c0 5.523-4.478 10-10 10z" fill="#b76c6c"/><circle id="XMLID_37_" cx="219.867" cy="219.79" fill="#5fcdff" r="25.755"/><path id="XMLID_36_" d="m227.365 244.439c-2.37.72-4.89 1.11-7.5 1.11-14.22 0-25.75-11.54-25.75-25.76s11.53-25.75 25.75-25.75c2.61 0 5.13.39 7.5 1.11-10.56 3.21-18.25 13.03-18.25 24.64s7.69 21.44 18.25 24.65z" fill="#73d7f9"/><path d="m62.79 173.31h-15c-5.52 0-10-4.48-10-10v-5.25c0-8.28 6.72-15 15-15h6c1.57 0 3.08.24 4.5.69-6.08 1.91-10.5 7.6-10.5 14.31v5.25c0 5.52 4.48 10 10 10z" fill="#c98585"/><path d="m207.2 173.31h-15c-5.53 0-10-4.48-10-10v-5.25c0-8.28 6.71-15 15-15h6c1.57 0 3.08.24 4.5.69-6.09 1.91-10.5 7.6-10.5 14.31v5.25c0 5.52 4.47 10 10 10z" fill="#c98585"/><g fill="#5f266d"><path d="m108.361 68.596c-3.02 0-5.47 2.45-5.47 5.47 0 3.01 2.45 5.46 5.47 5.46 3.01 0 5.46-2.45 5.46-5.46 0-3.02-2.45-5.47-5.46-5.47z"/><path d="m144.881 79.526c3.02 0 5.46-2.45 5.46-5.46 0-3.02-2.44-5.47-5.46-5.47s-5.47 2.45-5.47 5.47c0 3.01 2.45 5.46 5.47 5.46z"/><path d="m127.061 140.306c10.167 12.552 30.59 5.358 30.59-10.83 0-5.285-8-5.293-8 0 0 10.238-14.409 12.79-17.88 3.16 9.357-1.342 17.16-8.889 17.16-21.38 0-6.63-5.39-12.02-12.02-12.02h-17.75c-6.62 0-12.01 5.39-12.01 12.02 0 11.59 6.632 18.932 15.33 21.03-3.336 10.319-18.01 7.41-18.01-2.81 0-5.281-8-5.294-8 0 0 15.991 20.296 23.538 30.59 10.83zm-11.91-29.05c0-2.22 1.8-4.02 4.01-4.02h17.75c2.22 0 4.02 1.8 4.02 4.02 0 18.314-25.78 18.258-25.78 0z"/><path d="m36.561 87.246c0-9.86-8.03-17.89-17.9-17.89s-17.89 8.03-17.89 17.89c0 9.87 8.02 17.9 17.89 17.9s17.9-8.03 17.9-17.9zm-27.79 0c0-5.45 4.44-9.89 9.89-9.89 5.46 0 9.9 4.44 9.9 9.89 0 5.46-4.44 9.9-9.9 9.9-5.45 0-9.89-4.44-9.89-9.9z"/><path d="m37.281 60.706c16.41 0 29.76-13.34 29.76-29.75s-13.35-29.76-29.76-29.76c-16.4 0-29.75 13.35-29.75 29.76 0 16.41 13.35 29.75 29.75 29.75zm0-51.51c12 0 21.76 9.76 21.76 21.76 0 11.99-9.76 21.75-21.76 21.75-11.99 0-21.75-9.76-21.75-21.75 0-12 9.76-21.76 21.75-21.76z"/><path d="m45.538 36.44c-.297.227-1.975 1.989-2.141 2.195-3.11 3.867 2.235 8.71 5.803 5.47.66-.6 1.29-1.26 1.85-1.95 2.985-3.644-1.768-8.572-5.512-5.715z"/><path d="m37.281 21.196c3.87 0 7.41 2.31 8.96 5.9 2.098 4.873 9.463 1.706 7.34-3.19-2.82-6.5-9.22-10.71-16.3-10.71-5.286 0-5.293 8 0 8z"/><path d="m218.371 190.286c.016-.507.01-12.262.01-12.77h8.85c4.65 0 8.44-3.78 8.44-8.43v-8.16c0-4.65-3.79-8.44-8.44-8.44h-5.94c-2.44-7.66-9.63-13.22-18.09-13.22h-6c-8.46 0-15.65 5.56-18.09 13.22h-3.44c9.324-11.053 5.352-33.231-2.48-45.64v-9.4c10.116 21.889 9.768 21.32 10.47 22.32 4.645 6.6 14.709 5.835 18.3-1.39.495-1.024-.355 1.652 12.54-41.87 2.196-5.702-.873-12.051-6.57-13.95l-45.89-18.76c19.373-9.686 12.445-39.04-9.22-39.04-3.45 0-6.84.87-9.85 2.51-8.094-8.62-21.854-8.611-29.94 0-3.01-1.64-6.4-2.51-9.85-2.51-20.767 0-28.498 27.48-10.64 38.26l-44.47 18.18c-5.698 1.899-8.766 8.248-6.57 13.95 12.839 43.332 12.042 40.88 12.55 41.88 3.569 7.201 13.639 7.988 18.29 1.38.69-1 .432-.61 8.52-18.11v9.93c-6.282 11.87-9.218 31.961-.53 42.26h-3.44c-2.44-7.66-9.63-13.22-18.09-13.22h-6c-8.46 0-15.65 5.56-18.09 13.22h-5.94c-4.65 0-8.44 3.79-8.44 8.44v8.16c0 4.65 3.79 8.43 8.44 8.43h8.85v11.84c0 24.53 16.43 45.28 38.87 51.84l-5.6 5.6c-4.554 4.578 2.347 11.463 6.91 6.9l10.45-10.45c2.659.168 76.617.182 79.5 0l10.45 10.45c4.565 4.565 11.462-2.324 6.91-6.9l-5.6-5.6c5.17-1.51 10.02-3.78 14.42-6.67 5.08 9.08 14.81 15.23 25.94 15.23 16.41 0 29.76-13.35 29.76-29.76 0-17.305-14.755-30.699-31.26-29.71zm3.83-29.8h5.03c.24 0 .44.2.44.44v8.16c0 .24-.2.43-.44.43h-6.38c1.553-3.251 1.35-5.684 1.35-9.03zm-193.43 9.03c-.24 0-.44-.19-.44-.43v-8.16c0-.24.2-.44.44-.44h5.03c0 3.243-.222 5.742 1.35 9.03zm157.58-13.03c.823-5.19 5.365-9.22 10.85-9.22h6c5.485 0 10.027 4.029 10.85 9.22.184 1.068.15 1.082.15 7.03 0 2.25-1.24 4.21-3.07 5.24 0-4.589 0-5.733 0-10.36 0-5.316-8-5.254-8 0v11.12h-5.86c0-3.952 0-7.137 0-11.12 0-5.344-8-5.232-8 0v10.36c-1.83-1.03-3.07-2.99-3.07-5.24 0-5.785-.044-5.909.15-7.03zm18.98-86.37c1.484.469 2.277 2.125 1.68 3.58-.105.252-12.182 41.043-12.22 41.12-.889 1.792-3.433 1.983-4.58.35-.031-.031-29.182-63.11-29.2-63.15.156.064 44.158 18.051 44.32 18.1zm-85.16-9.9c-7.74-6-15.15-4.67-19.8-2.13l5.69-12.31c.77-.1 1.54-.25 2.29-.45 8.32 15.868 30.981 15.866 39.3 0 .54.14 1.09.26 1.65.36.111.356 6.163 13.401 6.32 13.74-9.65-6.67-18.6-2.3-22.08 1.08-3.729 3.611 1.668 9.353 5.54 5.77.94-.87 5.97-4.96 12.72.26 2.133 1.666 5.339.76 6.24-1.88l7.15 15.48v16.98c-20.141-19.118-56.498-19.023-76.33 1.95v-16.08l7.89-17.07c1.091 1.528 3.92 2.109 5.81.36.94-.87 5.97-4.96 12.71.26 4.126 3.222 9.157-3.036 4.9-6.32zm45.02 49.05c9.505 13.431 8.371 29.686 6.88 33.74-2.02 5.53-7.34 9.48-13.56 9.48h-61.02c-6.22 0-11.54-3.95-13.56-9.48-1.825-4.963-1.781-19.281 4.93-30.72 16.428-28.005 58.905-27.664 76.33-3.02zm-62.01-96.51c2.97 0 5.85 1.06 8.13 2.98 1.918 1.616 4.728 1.071 5.98-.94 4.966-7.993 16.463-7.979 21.42 0 1.269 2.039 4.084 2.538 5.98.94 2.27-1.92 5.16-2.98 8.13-2.98 16.675 0 16.685 25.23 0 25.23-1.912 0-3.813-.426-5.61-1.33-2.212-1.106-4.925.049-5.62 2.45-4.065 13.547-23.153 13.419-27.18 0-.696-2.406-3.414-3.553-5.62-2.45-1.76.88-3.65 1.33-5.61 1.33-16.817 0-16.59-25.23 0-25.23zm-37.39 101.05c-1.157 1.632-3.691 1.437-4.58-.34-.093-.28-12.13-40.915-12.22-41.13-.598-1.456.197-3.111 1.68-3.58.139-.042 44.185-18.045 44.32-18.1-.218.471-28.968 62.685-29.2 63.15zm12.01 46.68h100.4c0 3.243-.222 5.742 1.35 9.03h-103.1c1.553-3.251 1.35-5.684 1.35-9.03zm-32.93 8.27c-1.83-1.03-3.07-2.99-3.07-5.24 0-5.785-.043-5.909.15-7.03.823-5.19 5.365-9.22 10.85-9.22h6c5.509 0 10.035 4.08 10.85 9.22.75 4.349.915 10.111-2.92 12.27 0-4.589 0-5.733 0-10.36 0-5.345-8-5.232-8 0v11.12h-5.86c0-3.952 0-7.137 0-11.12 0-5.324-8-5.248-8 0zm146.07 58.14c-7.801 5.524-17.032 8.46-26.56 8.46h-72.76c-25.214 0-46-20.493-46-46v-11.84h164.69c0 12.779.093 12.779 0 14.31-14.521 4.927-22.985 20.21-19.37 35.07zm28.93 14.86c-11.963 0-21.75-9.745-21.75-21.76 0-12.013 9.791-21.75 21.75-21.75 12 0 21.76 9.76 21.76 21.75 0 12-9.76 21.76-21.76 21.76z"/><path d="m228.058 225.536c-.294.234-2.039 2.097-2.181 2.291-2.859 3.889 2.438 8.521 5.914 5.32.66-.6 1.29-1.25 1.85-1.95 2.998-3.663-1.839-8.649-5.583-5.661z"/><path d="m219.871 202.246c-5.296 0-5.322 8 0 8 3.775 0 7.376 2.223 8.96 5.89 2.112 4.906 9.454 1.673 7.34-3.18-2.82-6.51-9.22-10.71-16.3-10.71z"/><path d="m198.921 55.896c9.521 2.608 19.373-3.01 21.98-12.55 2.599-9.532-3.011-19.373-12.55-21.98-9.504-2.598-19.367 2.991-21.98 12.55-2.598 9.503 2.99 19.367 12.55 21.98zm-4.83-19.87c1.446-5.303 6.946-8.376 12.15-6.94 5.311 1.458 8.386 6.91 6.94 12.15-1.423 5.257-6.862 8.392-12.15 6.94-5.329-1.463-8.376-6.92-6.94-12.15z"/><path d="m207.971 121.866c0 9.87 8.03 17.9 17.89 17.9 9.87 0 17.9-8.03 17.9-17.9 0-9.86-8.03-17.89-17.9-17.89-9.86 0-17.89 8.03-17.89 17.89zm17.89-9.89c5.46 0 9.9 4.44 9.9 9.89 0 5.46-4.44 9.9-9.9 9.9-5.45 0-9.89-4.44-9.89-9.9 0-5.45 4.44-9.89 9.89-9.89z"/><path d="m242.041 46.956c-9.546-2.609-19.363 3.01-21.97 12.55-2.614 9.563 3.025 19.387 12.55 21.97 9.557 2.617 19.381-3.065 21.97-12.55 2.609-9.546-3.011-19.363-12.55-21.97zm4.84 19.87c-1.44 5.26-6.88 8.37-12.15 6.94-5.27-1.44-8.38-6.89-6.94-12.15 1.428-5.276 6.877-8.395 12.15-6.94 5.259 1.423 8.37 6.862 6.94 12.15z"/><path d="m33.901 141.546c9.87 0 17.9-8.03 17.9-17.89 0-9.87-8.03-17.9-17.9-17.9-9.86 0-17.89 8.03-17.89 17.9 0 9.86 8.03 17.89 17.89 17.89zm0-27.79c5.46 0 9.9 4.44 9.9 9.9 0 5.45-4.44 9.89-9.9 9.89-5.45 0-9.89-4.44-9.89-9.89 0-5.46 4.44-9.9 9.89-9.9z"/></g></svg>