<svg id="Icon_Set" enable-background="new 0 0 256 256" height="512" viewBox="0 0 256 256" width="512" xmlns="http://www.w3.org/2000/svg"><path d="m213.7 248.28c-1.57 1.55-3.66 2.57-5.97 2.81-.2.03-1.84.05-4.08.05-3.48.02-8.44.01-11.92-.01-2.08 0-3.55 0-3.69-.01-.45 0-.96-.07-1.49-.19-1.85-.41-3.99-1.51-5.13-2.89-4.74-4.94-3.85-15.66 4.32-18.79.33-.13.67-.24 1.02-.34l.09-25.27h21.64l-.1 25.21c10.03 2.67 10.04 15.48 5.31 19.43z" fill="#b76c6c"/><path d="m151.218 251.088c-.793.113-19.574.075-20.1 0-11.406-1.16-12.524-18.85-.88-22.18l.09-25.27h21.64l-.09 25.21c.28.07.56.15.83.24.07.02.13.05.19.07 10.567 3.837 9.531 20.785-1.68 21.93z" fill="#b76c6c"/><path d="m229.454 170.718v22.15c0 5.92-4.84 10.77-10.77 10.77h-98.54c-1.21 0-2.37-.2-3.45-.58h-13.85c-29.75 0-53.87-24.12-53.87-53.87v-23.99h72.3c1.28 1.65 2.74 3.17 4.38 4.53 1.7 1.43 3.58 2.69 5.64 3.74 1.53.78 3.09 1.42 4.67 1.92 13.8 4.36 29.17-1.76 35.97-15.06 1.47-2.87 2.43-5.87 2.92-8.89.03-.17.06-.33.08-.5.06 0 .13.01.2.02.52.04 1.05.1 1.57.17.07 0 .14.01.21.02h.01c12.04 1.52 22.99 6.64 31.75 14.24 1.09.94 2.14 1.92 3.15 2.93 10.45 10.45 17.08 24.7 17.59 40.43.03.65.04 1.31.04 1.97z" fill="#b76c6c"/><path d="m109.209 33.102v51.091c0 8.242-6.691 14.944-14.944 14.944h-61.93c-7.445 0-14.19-3.017-19.07-7.908-4.892-4.881-7.908-11.625-7.908-19.07 0-2.327.291-4.579.851-6.734 2.122-8.285 8.091-15.019 15.881-18.23 3.157-1.293 6.626-2.015 10.246-2.015h5.193c1.648 0 3.135-.668 4.224-1.745v-.011c1.077-1.088 1.745-2.575 1.745-4.224v-6.098c0-15.612 12.66-28.261 28.261-28.261h9.201c15.601 0 28.25 12.649 28.25 28.261z" fill="#b76c6c"/><path d="m84.439 5.067c-13.963 1.703-24.78 13.608-24.78 28.035v6.098c0 1.648-.668 3.135-1.745 4.224v.011c-1.088 1.077-2.575 1.745-4.224 1.745h-5.193c-3.62 0-7.089.722-10.246 2.015-7.79 3.211-13.759 9.945-15.881 18.23-.56 2.155-.851 4.407-.851 6.734 0 7.445 3.017 14.19 7.908 19.07 4.881 4.892 11.625 7.908 19.07 7.908h-16.162c-7.445 0-14.19-3.017-19.07-7.908-4.892-4.881-7.908-11.625-7.908-19.07 0-2.327.291-4.579.851-6.734 2.122-8.285 8.091-15.019 15.881-18.23 3.157-1.293 6.626-2.015 10.246-2.015h5.193c1.648 0 3.135-.668 4.224-1.745v-.011c1.077-1.088 1.745-2.575 1.745-4.224v-6.098c0-15.612 12.66-28.261 28.261-28.261h9.201c1.175 0 2.338.075 3.48.226z" fill="#c98585"/><path d="m68.514 156.223v70.825h-11.675c-5.95 0-10.774 4.824-10.774 10.774v1.077c0 5.95 4.824 10.774 10.774 10.774h11.674 10.862c5.95 0 10.774-4.824 10.774-10.774v-11.852-70.825h-21.635z" fill="#b76c6c"/><path d="m51.686 99.137h-19.35c-7.445 0-14.19-3.017-19.07-7.908-4.892-4.881-7.908-11.625-7.908-19.07 0-2.327.291-4.579.851-6.734 2.122-8.285 8.091-15.019 15.881-18.23 3.157-1.293 6.626-2.015 10.246-2.015h5.193c1.648 0 3.135-.668 4.224-1.745-.001-.001 30.91 25.997 9.933 55.702z" fill="#ffbb98"/><path d="m133.131 73.999c-2.86 1.22-5.54 2.89-7.92 4.97-2.83 2.45-5.25 5.48-7.06 9.02-1.5 2.92-2.47 5.98-2.95 9.06-1.486-1.437-.898-.346-7.65-23.18l-1.06-3.58-16.67-56.39c-.1-.47-.15-.92-.15-1.37 0-1.78.76-3.34 1.93-4.45.15-.14.3-.27.46-.4.16-.12.32-.24.49-.35.34-.22.7-.41 1.07-.56 1.93-.79 4.27-.65 6.23.91h.01l6.22 6.58 28.55 30.19c2.11 2.23 3.39 5.05 3.72 8 .441 3.939-.419 5.322-5.22 21.55z" fill="#b76c6c"/><path d="m104.962 125.195h-55.994v-21.808c0-2.348 1.903-4.251 4.251-4.251h47.492c2.348 0 4.251 1.903 4.251 4.251z" fill="#ff4a73"/><path d="m119.003 203.054h-16.161c-29.758 0-53.871-24.113-53.871-53.871v-23.983h16.161v23.983c0 29.759 24.113 53.871 53.871 53.871z" fill="#c98585"/><path d="m69.377 99.137c-2.349 0-4.245 1.907-4.245 4.245v21.818h-16.161v-21.818c0-2.338 1.896-4.245 4.245-4.245z" fill="#f973a3"/><path d="m104.964 103.382v21.818h-16.161v-21.818c0-2.338-1.907-4.245-4.256-4.245h16.161c2.349 0 4.256 1.907 4.256 4.245z" fill="#ea2a6a"/><path d="m29.426 91.229c-4.892-4.881-7.908-11.625-7.908-19.07 0-2.327.291-4.579.851-6.734 2.122-8.285 8.091-15.019 15.881-18.23 1.821-.743 3.749-1.304 5.753-1.627-1.368-1.39-2.252-2.133-2.252-2.133-1.088 1.077-2.575 1.745-4.224 1.745h-5.193c-3.62 0-7.089.722-10.246 2.015-7.79 3.211-13.759 9.945-15.881 18.23-.56 2.155-.851 4.407-.851 6.734 0 7.445 3.017 14.19 7.908 19.07 4.881 4.892 11.625 7.908 19.07 7.908h16.161c-7.443 0-14.188-3.017-19.069-7.908z" fill="#ffcaa6"/><path d="m125.211 78.969c-2.83 2.45-5.25 5.48-7.06 9.02-1.5 2.92-2.47 5.98-2.95 9.06-1.486-1.437-.898-.346-7.65-23.18l-1.06-3.58-16.68-56.4c-.1-.46-.14-.92-.14-1.36 0-1.78.76-3.34 1.93-4.45.15-.14.3-.27.46-.4.16-.12.32-.24.49-.35.34-.22.7-.41 1.07-.56 1.93-.79 4.27-.65 6.23.91l6.23 6.58 13.27 44.89 1.22 4.13z" fill="#c98585"/><path d="m26.236 52.887v2.015c0 6.606-5.357 11.957-11.957 11.957h-2.415c-2.051 0-3.976-.514-5.662-1.429 2.128-8.286 8.095-15.03 15.89-18.234 2.404.777 4.144 3.025 4.144 5.691z" fill="#b76c6c"/><path d="m72.103 249.674h-15.267c-5.947 0-10.774-4.827-10.774-10.774v-1.077c0-5.947 4.827-10.774 10.774-10.774h15.267c-5.947 0-10.774 4.827-10.774 10.774v1.077c0 5.947 4.826 10.774 10.774 10.774z" fill="#c98585"/><path d="m131.694 203.058c1.08.38 2.24.58 3.45.58h-15c-1.21 0-2.37-.2-3.45-.58-4.25-1.44-7.32-5.48-7.32-10.19v-22.15c0-8.8 1.91-17.16 5.35-24.7 2.75-6.02 6.46-11.52 10.93-16.29 1.7 1.43 3.58 2.69 5.64 3.74 1.53.78 3.09 1.42 4.67 1.92-3.87 5.27-6.9 11.2-8.89 17.57-1.76 5.62-2.7 11.58-2.7 17.76v22.15c0 4.71 3.07 8.75 7.32 10.19z" fill="#c98585"/><path d="m229.454 170.718v22.15c0 5.92-4.84 10.77-10.77 10.77h-15c5.93 0 10.77-4.85 10.77-10.77v-22.15c0-3.18-.25-6.3-.74-9.34-2.01-12.79-8.1-24.27-16.89-33.06-1.01-1.01-2.06-1.99-3.15-2.93-5.65-4.9-12.2-8.77-19.38-11.3.23-.88.42-1.76.56-2.65.03-.17.06-.33.08-.5 12.82 1.18 24.5 6.44 33.74 14.45 1.09.94 2.14 1.92 3.15 2.93 10.45 10.45 17.08 24.7 17.59 40.43.03.65.04 1.31.04 1.97z" fill="#965959"/><path d="m203.65 251.14c-3.48.02-8.44.01-11.92-.01-2.34-.01-4-.02-4.11-.04-.37-.03-.72-.08-1.07-.16-1.85-.41-3.99-1.51-5.13-2.89-4.74-4.94-3.85-15.66 4.32-18.79.33-.13.67-.24 1.02-.34l.09-25.27h4.96c5.54 0 10.02 4.5 10 10.03l-.05 15.24c-11.85 3.21-10.44 22.23 1.89 22.23z" fill="#c98585"/><path d="m145.24 228.908.054-15.234c.02-5.537-4.463-10.036-10-10.036h-4.964l-.09 25.27c-11.65 3.33-10.33 21.21.88 22.18.26.04 10.21.08 16.02.05-12.31 0-13.74-19.01-1.9-22.23z" fill="#c98585"/><path d="m250.621 145.969c-.28-6.08-3.72-11.84-9.53-14.81l-46.61-23.83-.01.03c2.26-20-7.81-40.21-26.78-49.91-9.4-4.8-19.61-6.33-29.34-5-6.71.92-13.19 3.19-19 6.7-4.83 2.9-9.2 6.64-12.86 11.14-2.18 2.67-4.11 5.61-5.74 8.8-12.5 24.46-2.81 54.43 21.64 66.94 18.97 9.69 41.24 6.04 56.12-7.49l46.62 23.84c8.62 4.41 19.18.99 23.59-7.63 1.44-2.81 2.04-5.84 1.9-8.78zm-78.69-30.48c-7.58 14.83-25.81 20.73-40.64 13.14-14.942-7.64-20.686-25.95-13.14-40.64 1.81-3.54 4.23-6.57 7.06-9.02 2.38-2.08 5.06-3.75 7.92-4.97 7.97-3.42 17.35-3.4 25.66.85 14.83 7.58 20.73 25.81 13.14 40.64z" fill="#ffe2e2"/><path d="m250.624 145.969c-5.1 3.34-11.79 3.92-17.6.95l-46.6-23.83-7.91 15.45 46.62 23.84c8.62 4.41 19.18.99 23.59-7.63 1.44-2.81 2.04-5.84 1.9-8.78z" fill="#ffefee"/><path d="m222.087 139.009-1.788 3.492c-1.259 2.458-4.271 3.43-6.729 2.172l-11.1-5.683c-2.458-1.259-3.43-4.271-2.172-6.729l1.788-3.492c1.259-2.458 4.271-3.43 6.729-2.172l11.1 5.683c2.459 1.258 3.431 4.271 2.172 6.729z" fill="#4bdbc3"/><g fill="#5f266d"><circle cx="62.21" cy="41.118" r="6.392"/><path d="m82.356 38.683c2.184.323 4.219-1.187 4.541-3.374.322-2.185-1.188-4.218-3.373-4.541-13.65-2.014-17.809-10.723-18.007-11.157-2.125-4.816-9.418-1.642-7.334 3.197.231.538 5.874 13.176 24.173 15.875z"/><path d="m69.359 151.365c-.047-.762-.07-1.535-.07-2.298 0-2.209-1.791-4-4-4s-4 1.791-4 4c0 .926.029 1.865.086 2.79.13 2.122 1.892 3.754 3.988 3.754 2.321-.001 4.137-1.955 3.996-4.246z"/><path d="m72.61 164.439c-.909-2.014-3.28-2.907-5.292-1.999-2.014.91-2.908 3.279-1.999 5.292 2.536 5.614 6.145 10.659 10.725 14.996 3.832 3.628 9.335-2.179 5.5-5.809-3.822-3.619-6.828-7.818-8.934-12.48z"/><path d="m175.436 117.63c13.685-26.767-11.76-57.548-40.974-48.107-28.83 9.324-32.165 49.125-5.055 62.989 16.793 8.586 37.441 1.911 46.029-14.882zm-42.386 7.759c-24.166-12.357-15.747-49.542 11.984-49.542 19.628 0 32.108 20.872 23.278 38.14-6.576 12.867-22.394 17.981-35.262 11.402z"/><path d="m242.853 127.917-44.243-22.62c1.906-32.309-24.903-58.974-57.08-56.849-.825-2.386-2.137-4.569-3.905-6.43-.298-.315-34.847-36.883-35.188-37.152-2.908-2.312-6.627-2.86-9.941-1.606-6.67-2.546-11.074-2.104-20.656-2.104-17.782 0-32.25 14.472-32.25 32.26 0 9.182.991 8.08-7.16 8.08-3.552 0-7.029.595-10.364 1.775l-.054-.018c-23.655 9.727-26.134 36.48-11.491 51.119 5.846 5.858 13.627 9.084 21.91 9.084h12.632c-.019.615-.012 45.435-.012 46.05 0 16.659 7.112 32.334 19.55 43.333v30.523h-7.68c-7.42 0-14.771 5.548-14.771 15.86 0 8.144 6.626 14.77 14.771 14.77 23.546 0 26.686.973 31.935-3.374 3.416-2.818 5.375-6.971 5.375-11.396v-32.522c2.864.433 5.769.677 8.69.677h16.721 6.165l-.067 18.551c-13.203 6.826-9.737 28.945 5.891 28.945h18.05c15.683 0 19.179-22.331 5.7-29.046l.066-18.454h26.88l-.066 18.553c-13.305 6.868-9.659 28.947 5.88 28.947h18.05c15.655 0 19.221-22.319 5.701-29.046l.073-18.45h6.216c8.145 0 14.771-6.626 14.771-14.77 0-23.874.035-22.991-.055-23.992 8.027.05 15.569-4.381 19.327-11.727 5.395-10.571 1.192-23.566-9.371-28.971zm-145.573-116.92c37.651 39.815 35.168 36.979 36.057 38.623-9.226 2.057-17.874 6.52-24.932 13.063l-14.614-49.419c-.32-1.972 1.907-3.328 3.489-2.267zm-49.689 22.42c0-13.377 10.879-24.26 24.25-24.26 9.835 0 11.185-.146 14.42.564-.541 1.666-.657 3.484-.278 5.302.022.107.049.213.08.318l16.061 54.312c-5.803 7.682-9.35 16.585-10.496 25.793h-32.793c12.168-24.323-5.134-45.426-11.909-52.36.85-2.219.665-3.263.665-9.669zm47.301 88.089h-41.841v-17.8c0-.139.117-.239.226-.25h37.967c.167 6.096 1.353 12.118 3.648 18.05zm-72.955-69.475c.549.736.383 1.475.383 3.186 0 4.388-3.569 7.957-7.957 7.957-.453 0-2.531.01-2.944-.017 2.183-4.906 5.96-8.761 10.518-11.126zm10.494 43.426c-6.144 0-11.913-2.392-16.251-6.739-2.309-2.309-4.046-5.031-5.185-7.991 3.099 2.765 7.171 4.462 11.641 4.462 9.662 0 17.522-7.86 17.522-17.522 0-2.209-1.791-4-4-4s-4 1.791-4 4c0 10.452-14.503 13.216-18.367 3.507 10.143 0 16.529-7.731 16.529-15.957 0-2.171.113-3.521-.646-5.538 5.182-.618 8.207.497 11.683-.911 6.056 6.061 22.002 25.141 8.276 46.686zm53.8 143.766c0 3.476-2.69 6.579-6.447 6.746l-22.862.024c-9.037 0-9.062-14.63 0-14.63h11.68c2.209 0 4-1.791 4-4v-28.589c4.266 2.627 8.857 4.716 13.63 6.152v34.297zm24.264-94.94c-3.731 8.279-5.624 17.084-5.624 26.174v22.15c0 2.441.605 4.74 1.658 6.77h-3.608c-3.983 0-7.935-.47-11.756-1.399-7.284-1.749-14.204-5.217-20.014-10.033-11.503-9.518-18.101-23.528-18.101-38.438v-19.99h45.732c3.181 5.375 7.266 10.13 12.105 14.086-.148.21-.281.436-.392.68zm-9.036-28.155c-12.499-38.666 28.127-73.315 64.347-54.795 36.267 18.545 31.757 71.795-6.753 84.246-24.053 7.777-49.815-5.395-57.594-29.451zm123.492 76.478c0 3.733-3.037 6.77-6.771 6.77-.312 0-9.895-.004-10.2-.004-2.338 0-3.992 1.942-4 3.984l-.1 25.21c-.007 1.837 1.237 3.442 3.019 3.894 7.681 1.944 6.867 14.412-.709 14.412 0 0-17.569 0-18.05 0-7.595 0-8.295-12.347-.842-14.37 1.737-.472 2.945-2.046 2.952-3.846l.09-25.27c0-.002-.001-.005-.001-.007s.001-.004.001-.007c0-2.235-1.858-3.993-3.985-4-.005 0-.01 0-.015 0-4.366 0-30.513 0-34.88 0-2.215 0-3.993 1.821-4 3.986l-.09 25.21c-.007 1.836 1.238 3.441 3.019 3.892 7.654 1.939 6.865 14.413-.709 14.413-.917 0-18.05 0-18.05 0-7.586 0-8.303-12.344-.851-14.37 1.736-.472 2.943-2.046 2.95-3.846l.091-25.27c0-.002 0-.003 0-.005 0-.001 0-.003 0-.005 0-.093-.021-.18-.027-.271-.012-.18-.019-.361-.054-.534-.002-.011-.007-.021-.01-.032-.383-1.803-1.977-3.16-3.894-3.167-.005 0-.01 0-.015 0-.013 0-.026.004-.039.004h-10.141c-3.733 0-6.771-3.037-6.771-6.77v-22.15c0-7.708 1.57-15.178 4.639-22.224 20.432 12.118 44.816 9.087 61.522-4.583 48.17 24.632 44.718 22.929 46.335 23.548-.57 1.144-.414-.546-.414 25.408zm20.15-39.359c-3.4 6.644-11.569 9.286-18.208 5.89l-41.751-21.351c6.033-6.804 10.317-15.107 12.309-24.097l41.759 21.35c6.639 3.397 9.281 11.567 5.891 18.208z"/><path d="m221.677 129.037-11.1-5.683c-2.141-1.097-4.58-1.293-6.867-.554-2.288.738-4.151 2.324-5.246 4.463-1.818 3.551-3.687 6.189-2.342 10.358.738 2.288 2.323 4.151 4.463 5.247l11.101 5.684c1.309.67 2.707.988 4.086.988 3.272 0 6.435-1.79 8.026-4.898l1.787-3.492c2.262-4.418.509-9.851-3.908-12.113zm-3.213 8.467-1.787 3.492c-.251.491-.856.685-1.346.435l-11.101-5.684c-.488-.25-.688-.849-.434-1.345l1.788-3.493c.255-.496.858-.685 1.345-.434l11.101 5.683c.491.251.686.855.434 1.346z"/></g></svg>