<?xml version="1.0" encoding="UTF-8" standalone="no"?>
<!DOCTYPE svg PUBLIC "-//W3C//DTD SVG 1.1//EN" "http://www.w3.org/Graphics/SVG/1.1/DTD/svg11.dtd">
<svg width="100%" height="100%" viewBox="0 0 512 512" version="1.1" xmlns="http://www.w3.org/2000/svg" xmlns:xlink="http://www.w3.org/1999/xlink" xml:space="preserve" xmlns:serif="http://www.serif.com/" style="fill-rule:evenodd;clip-rule:evenodd;stroke-linejoin:round;stroke-miterlimit:2;">
    <g>
        <g id="XMLID_256_">
            <g id="XMLID_257_">
                <g id="XMLID_258_">
                    <g id="XMLID_259_">
                        <g id="XMLID_260_">
                            <g id="XMLID_261_">
                                <g id="XMLID_262_">
                                    <g id="XMLID_263_">
                                        <g id="XMLID_264_">
                                            <g id="XMLID_265_">
                                                <g id="XMLID_266_">
                                                    <g id="XMLID_267_">
                                                        <g id="XMLID_268_">
                                                            <g id="XMLID_269_">
                                                                <circle id="XMLID_270_" cx="256" cy="256" r="256" style="fill:white;"/>
                                                            </g>
                                                        </g>
                                                    </g>
                                                </g>
                                            </g>
                                        </g>
                                    </g>
                                </g>
                            </g>
                        </g>
                    </g>
                </g>
            </g>
        </g>
        <path d="M512,256C512,214.897 502.298,176.066 485.082,141.647L422.936,79.5C422.936,79.5 340.281,170.814 324.331,197.33C311.394,191.399 241.271,179.831 230.828,183.839L174.359,127.442L115.314,285.373C115.314,285.373 137.976,308.133 139.043,309.207C127.245,342.463 138.849,407.809 138.849,407.809L242.699,511.659C247.105,511.884 251.539,512 256.001,512C397.385,512 512,397.385 512,256Z" style="fill:white;fill-rule:nonzero;"/>
        <g>
            <path d="M387.63,391.58C370.65,415.46 338.29,436.88 281.76,452.49C264.91,457.14 247.09,457.14 230.24,452.49C173.71,436.88 141.35,415.46 124.37,391.58C124.37,391.58 114.1,344.537 133,303.667C159.56,246.237 244.8,160.2 244.8,160.2C248.67,159.78 252.41,159.59 256,159.59C259.59,159.59 263.33,159.78 267.2,160.2C267.2,160.2 355.613,227.946 378.333,287C403.725,353 387.63,391.58 387.63,391.58Z" style="fill:rgb(237,212,190);fill-rule:nonzero;"/>
            <path d="M387.63,391.58C370.65,415.46 338.29,436.88 281.76,452.49C273.34,454.82 264.67,455.98 256,455.98L256,159.59C259.59,159.59 263.33,159.78 267.2,160.2C267.2,160.2 355.61,227.95 378.33,287C403.73,353 387.63,391.58 387.63,391.58Z" style="fill:rgb(237,212,190);fill-rule:nonzero;"/>
            <g>
                <path d="M422.936,79.5C361.176,88.429 320.836,144.115 304.885,170.631C291.948,164.7 279.058,161.44 267.289,160.2C268.561,169.12 282.755,182.577 284.589,195C291.085,239.012 285.142,278.102 291.732,307.784C296.072,327.316 328.64,312.858 359.422,331.333C387.385,348.117 387.63,391.58 387.63,391.58C410.863,358.91 405.356,321.634 393.507,288.297C486.003,205.643 422.936,79.5 422.936,79.5Z" style="fill:rgb(204,134,86);fill-rule:nonzero;"/>
                <path d="M89.064,79.5C89.064,79.5 25.974,205.688 118.543,288.342C106.679,321.667 101.146,358.925 124.37,391.58C124.37,391.58 124.703,348.117 152.667,331.333C183.449,312.857 216.017,327.316 220.357,307.784C226.947,278.102 221.004,239.012 227.5,195C229.334,182.577 243.528,169.12 244.8,160.2C233.009,161.443 220.094,164.711 207.134,170.663C191.196,144.16 150.848,88.433 89.064,79.5Z" style="fill:rgb(204,134,86);fill-rule:nonzero;"/>
            </g>
            <g>
                <g>
                    <path d="M173.71,192.94C160.25,205.28 147.88,221.62 138.05,242.88C137.33,244.44 136.59,246.03 135.85,247.64C97.49,210.58 118.43,147.02 118.43,147.02C152.1,151.89 171.36,188.24 173.71,192.94Z" style="fill:rgb(237,212,190);fill-rule:nonzero;"/>
                    <path d="M376.15,247.64C375.41,246.03 374.67,244.44 373.95,242.88C364.12,221.62 351.75,205.28 338.29,192.94C340.64,188.24 359.9,151.89 393.57,147.02C393.57,147.02 414.51,210.58 376.15,247.64Z" style="fill:rgb(237,212,190);fill-rule:nonzero;"/>
                </g>
                <path d="M257.122,351.999C236.965,351.999 219.246,353.199 224.443,375.935C227.803,390.632 249.181,401.131 257.122,401.131C265.063,401.131 286.441,390.633 289.801,375.935C294.998,353.198 277.279,351.999 257.122,351.999Z" style="fill:rgb(58,53,46);fill-rule:nonzero;"/>
                <path d="M289.8,375.929C286.444,390.636 265.063,401.133 257.122,401.133L257.122,352.002C277.282,352.002 295,353.203 289.8,375.929Z" style="fill:rgb(58,53,46);fill-rule:nonzero;"/>
                <g>
                    <g transform="matrix(0.033,-1,1,0.033,-104.009,497.608)">
                        <circle cx="205.02" cy="302.526" r="17.725" style="fill:rgb(58,53,46);"/>
                    </g>
                    <g transform="matrix(0.999,-0.045,0.045,0.999,-13.207,14.015)">
                        <circle cx="306.98" cy="302.526" r="17.725" style="fill:rgb(58,53,46);"/>
                    </g>
                </g>
            </g>
        </g>
    </g>
</svg>
