<?xml version="1.0" encoding="UTF-8" standalone="no"?>
<!DOCTYPE svg PUBLIC "-//W3C//DTD SVG 1.1//EN" "http://www.w3.org/Graphics/SVG/1.1/DTD/svg11.dtd">
<svg width="100%" height="100%" viewBox="0 0 512 512" version="1.1" xmlns="http://www.w3.org/2000/svg" xmlns:xlink="http://www.w3.org/1999/xlink" xml:space="preserve" xmlns:serif="http://www.serif.com/" style="fill-rule:evenodd;clip-rule:evenodd;stroke-linejoin:round;stroke-miterlimit:2;">
    <g>
        <path d="M256.422,502C138.004,502 42,417.844 42,325.711C42,286.559 58.809,243.605 86.844,214.168C94.273,206.367 95.434,198.254 87.176,186.246C76.203,170.293 69.883,152.688 69.883,134.035C69.883,65.535 153.402,10 256.422,10C359.445,10 442.961,65.535 442.961,134.035C442.961,152.688 436.641,170.293 425.668,186.246C417.41,198.254 418.57,206.363 426,214.168C454.035,243.605 470.848,286.555 470.848,325.711C470.848,417.844 374.844,502 256.422,502ZM256.422,60.691C172.348,60.691 119.367,95.031 127.57,145.121C135.77,195.211 172.344,151.164 256.422,151.164C340.5,151.164 377.074,195.211 385.273,145.121C393.477,95.031 340.5,60.691 256.422,60.691Z" style="fill:rgb(57,221,210);fill-opacity:0;"/>
        <path d="M214.938,144.605C199.418,147.156 185.953,150.754 175.133,153.645C160.508,157.551 147.883,160.93 143.277,157.953C140.738,156.313 138.719,151.316 137.438,143.508C135.094,129.18 138.641,116.336 147.984,105.34C166.688,83.32 206.215,70.691 256.422,70.691C306.633,70.691 346.156,83.32 364.863,105.34C374.207,116.336 377.754,129.18 375.406,143.508C374.129,151.316 372.109,156.313 369.566,157.953C364.969,160.926 352.336,157.551 337.715,153.645C326.895,150.754 313.43,147.156 297.906,144.605C292.465,143.715 287.313,147.402 286.418,152.852C285.523,158.301 289.215,163.445 294.664,164.34C309.215,166.73 321.613,170.043 332.551,172.965C345.047,176.305 355.457,179.086 364.395,179.086C370.328,179.086 375.613,177.859 380.422,174.75C390.582,168.188 393.691,155.617 395.145,146.738C398.438,126.637 393.234,107.844 380.105,92.391C357.594,65.891 312.512,50.691 256.422,50.691C200.336,50.691 155.254,65.891 132.742,92.391C119.609,107.848 114.41,126.641 117.703,146.738C119.156,155.621 122.266,168.188 132.426,174.75C144.473,182.539 159.5,178.523 180.297,172.969C191.234,170.047 203.633,166.73 218.184,164.34C223.633,163.445 227.324,158.301 226.43,152.852C225.531,147.402 220.391,143.715 214.938,144.605Z" style="fill:rgb(104,102,102);"/>
        <path d="M433.242,207.27C430.031,203.898 427.496,201.238 433.91,191.914C446.551,173.531 452.961,154.059 452.961,134.035C452.961,97.449 431.973,63.344 393.859,38.004C357.008,13.496 308.195,0 256.422,0C204.648,0 155.84,13.496 118.984,38.004C80.871,63.344 59.883,97.449 59.883,134.035C59.883,154.055 66.293,173.527 78.934,191.91C85.348,201.238 82.813,203.898 79.605,207.27C50.242,238.102 32,283.484 32,325.711C32,373.16 56.191,420.672 98.379,456.066C141.367,492.137 197.496,512 256.422,512C315.348,512 371.477,492.137 414.469,456.066C456.652,420.676 480.848,373.16 480.848,325.711C480.848,283.484 462.605,238.102 433.242,207.27ZM401.613,440.746C362.219,473.797 310.656,492 256.422,492C202.187,492 150.629,473.797 111.23,440.746C73.59,409.164 52,367.234 52,325.711C52,288.422 68.125,248.324 94.086,221.062C105.324,209.262 105.773,195.641 95.414,180.582C85.109,165.594 79.883,149.934 79.883,134.035C79.883,104.359 97.699,76.172 130.055,54.656C163.668,32.309 208.547,20 256.422,20C304.301,20 349.176,32.309 382.789,54.656C415.141,76.172 432.961,104.359 432.961,134.035C432.961,149.934 427.734,165.594 417.43,180.578C407.07,195.641 407.52,209.262 418.758,221.062C444.719,248.32 460.848,288.422 460.848,325.711C460.848,367.234 439.258,409.164 401.613,440.746Z" style="fill:rgb(104,102,102);"/>
        <path d="M246.422,151.164C246.422,156.676 250.914,161.164 256.422,161.164C261.93,161.164 266.422,156.676 266.422,151.164C266.422,145.656 261.93,141.164 256.422,141.164C250.914,141.164 246.422,145.656 246.422,151.164Z" style="fill:rgb(104,102,102);"/>
    </g>
</svg>
